<svg id="svg" version="1.1" xmlns="http://www.w3.org/2000/svg" xmlns:xlink="http://www.w3.org/1999/xlink" width="400"
    height="400" viewBox="0, 0, 400,400">
    <g id="svgg">
        <path id="path0"
            d="M193.455 158.678 C 193.302 158.831,191.607 159.011,189.688 159.078 C 184.770 159.250,181.200 159.621,181.200 159.961 C 181.200 160.120,180.360 160.294,179.333 160.347 C 178.306 160.400,177.156 160.610,176.777 160.812 C 176.399 161.015,175.515 161.224,174.814 161.278 C 174.113 161.331,173.452 161.515,173.346 161.687 C 173.240 161.859,172.623 162.000,171.976 162.000 C 171.329 162.000,170.800 162.180,170.800 162.400 C 170.800 162.620,170.095 162.800,169.233 162.800 C 168.372 162.800,167.607 162.975,167.533 163.188 C 167.460 163.402,167.000 163.637,166.510 163.711 C 166.021 163.785,165.496 163.971,165.344 164.123 C 165.191 164.275,164.647 164.400,164.133 164.400 C 163.620 164.400,163.200 164.580,163.200 164.800 C 163.200 165.020,162.750 165.200,162.200 165.200 C 161.650 165.200,161.200 165.380,161.200 165.600 C 161.200 165.820,160.739 166.000,160.176 166.000 C 159.596 166.000,159.260 166.173,159.400 166.400 C 159.540 166.627,159.204 166.800,158.624 166.800 C 158.061 166.800,157.600 166.980,157.600 167.200 C 157.600 167.420,157.240 167.600,156.800 167.600 C 156.360 167.600,156.000 167.780,156.000 168.000 C 156.000 168.220,155.640 168.400,155.200 168.400 C 154.760 168.400,154.400 168.542,154.400 168.715 C 154.400 168.888,154.038 169.057,153.596 169.090 C 153.154 169.124,152.271 169.522,151.635 169.975 C 150.998 170.429,150.279 170.800,150.038 170.800 C 149.797 170.800,149.600 170.980,149.600 171.200 C 149.600 171.420,149.240 171.600,148.800 171.600 C 148.360 171.600,148.000 171.780,148.000 172.000 C 148.000 172.220,147.722 172.400,147.383 172.400 C 146.777 172.400,146.308 172.705,144.771 174.100 C 144.347 174.485,143.730 174.800,143.400 174.800 C 143.070 174.800,142.800 174.980,142.800 175.200 C 142.800 175.420,142.530 175.600,142.200 175.600 C 141.870 175.600,141.240 175.960,140.800 176.400 C 140.360 176.840,140.000 177.082,140.000 176.938 C 140.000 176.794,139.640 177.002,139.200 177.400 C 138.760 177.798,138.400 177.979,138.400 177.801 C 138.400 177.623,138.064 177.865,137.653 178.339 C 137.242 178.812,136.702 179.200,136.453 179.200 C 136.204 179.200,136.000 179.380,136.000 179.600 C 136.000 179.820,135.823 180.000,135.607 180.000 C 135.391 180.000,134.370 180.809,133.338 181.798 C 132.306 182.786,131.393 183.526,131.308 183.442 C 131.173 183.306,127.330 187.083,123.745 190.873 C 123.055 191.603,121.750 192.885,120.845 193.723 C 119.940 194.560,119.200 195.426,119.200 195.646 C 119.200 195.867,119.033 195.944,118.829 195.818 C 118.625 195.692,118.340 195.960,118.196 196.414 C 118.051 196.868,117.318 197.855,116.567 198.607 C 115.815 199.358,115.200 200.234,115.200 200.553 C 115.200 200.872,115.055 201.193,114.877 201.267 C 114.699 201.340,113.970 202.255,113.257 203.300 C 112.545 204.345,111.775 205.200,111.547 205.200 C 111.320 205.200,111.215 205.425,111.316 205.700 C 111.416 205.975,111.182 206.560,110.796 207.000 C 110.410 207.440,109.649 208.651,109.104 209.690 C 108.559 210.730,107.998 211.465,107.857 211.323 C 107.716 211.182,107.600 211.331,107.600 211.654 C 107.600 212.442,106.675 214.393,106.300 214.397 C 106.135 214.399,106.000 214.760,106.000 215.200 C 106.000 215.640,105.820 216.000,105.600 216.000 C 105.380 216.000,105.200 216.360,105.200 216.800 C 105.200 217.240,105.020 217.600,104.800 217.600 C 104.580 217.600,104.400 217.960,104.400 218.400 C 104.400 218.840,104.220 219.200,104.000 219.200 C 103.780 219.200,103.600 219.560,103.600 220.000 C 103.600 220.440,103.420 220.800,103.200 220.800 C 102.980 220.800,102.800 221.149,102.800 221.576 C 102.800 222.003,102.620 222.464,102.400 222.600 C 102.180 222.736,102.000 223.287,102.000 223.824 C 102.000 224.361,101.820 224.800,101.600 224.800 C 101.380 224.800,101.200 225.160,101.200 225.600 C 101.200 226.040,101.020 226.400,100.800 226.400 C 100.580 226.400,100.400 226.951,100.400 227.624 C 100.400 228.337,100.233 228.744,100.000 228.600 C 99.767 228.456,99.600 228.863,99.600 229.576 C 99.600 230.249,99.420 230.800,99.200 230.800 C 98.980 230.800,98.800 231.340,98.800 232.000 C 98.800 232.660,98.620 233.200,98.400 233.200 C 98.180 233.200,98.000 233.841,98.000 234.624 C 98.000 235.407,97.838 235.947,97.640 235.825 C 97.442 235.703,97.184 236.367,97.066 237.301 C 96.749 239.813,96.336 241.748,96.020 242.200 C 95.867 242.420,95.695 243.410,95.639 244.400 C 95.582 245.390,95.371 246.371,95.168 246.580 C 94.966 246.789,94.800 248.094,94.800 249.480 C 94.800 250.866,94.626 252.000,94.412 252.000 C 93.886 252.000,93.885 277.082,94.411 277.407 C 94.625 277.539,94.800 278.771,94.800 280.144 C 94.800 281.517,94.970 282.811,95.179 283.020 C 95.387 283.229,95.603 284.177,95.658 285.126 C 95.714 286.075,95.904 286.940,96.080 287.049 C 96.256 287.158,96.400 287.867,96.400 288.624 C 96.400 289.381,96.560 290.000,96.756 290.000 C 97.106 290.000,97.420 291.337,97.859 294.699 C 97.981 295.633,98.242 296.297,98.440 296.175 C 98.638 296.053,98.800 296.593,98.800 297.376 C 98.800 298.159,98.980 298.800,99.200 298.800 C 99.420 298.800,99.600 299.160,99.600 299.600 C 99.600 300.040,99.741 300.400,99.913 300.400 C 100.085 300.400,100.266 300.895,100.316 301.500 C 100.366 302.105,100.585 302.660,100.803 302.733 C 101.022 302.807,101.200 303.195,101.200 303.596 C 101.200 304.225,101.695 305.407,103.250 308.495 C 103.443 308.877,103.600 309.462,103.600 309.795 C 103.600 310.128,103.780 310.400,104.000 310.400 C 104.220 310.400,104.400 310.771,104.400 311.224 C 104.400 311.677,104.580 311.936,104.800 311.800 C 105.027 311.660,105.200 311.996,105.200 312.576 C 105.200 313.139,105.380 313.600,105.600 313.600 C 105.820 313.600,106.000 313.870,106.000 314.200 C 106.000 314.530,106.180 314.800,106.400 314.800 C 106.620 314.800,106.800 315.070,106.800 315.400 C 106.800 315.730,106.980 316.000,107.200 316.000 C 107.420 316.000,107.600 316.360,107.600 316.800 C 107.600 317.240,107.736 317.600,107.902 317.600 C 108.069 317.600,108.446 318.145,108.741 318.811 C 109.035 319.477,109.889 320.912,110.638 322.001 C 111.387 323.090,112.000 324.215,112.000 324.502 C 112.000 324.789,112.360 325.283,112.800 325.600 C 113.240 325.917,113.600 326.385,113.600 326.640 C 113.600 326.895,114.320 327.846,115.200 328.752 C 116.080 329.659,116.845 330.614,116.900 330.875 C 116.955 331.135,117.950 332.314,119.111 333.494 C 120.272 334.674,121.140 335.773,121.040 335.936 C 120.939 336.099,121.384 336.585,122.027 337.016 C 122.671 337.447,123.198 337.959,123.199 338.153 C 123.199 338.347,123.605 338.849,124.100 339.267 C 125.422 340.386,129.880 344.414,131.338 345.807 C 132.032 346.470,133.230 347.452,134.000 347.988 C 134.770 348.524,135.670 349.242,136.000 349.584 C 136.330 349.926,137.095 350.460,137.700 350.770 C 138.305 351.081,138.800 351.485,138.800 351.668 C 138.800 351.850,139.081 352.000,139.424 352.000 C 139.767 352.000,139.936 352.180,139.800 352.400 C 139.664 352.620,139.923 352.800,140.376 352.800 C 140.829 352.800,141.205 352.935,141.211 353.100 C 141.225 353.492,144.416 355.461,144.614 355.200 C 144.697 355.090,144.998 355.304,145.283 355.675 C 145.872 356.444,150.289 358.800,151.142 358.800 C 151.452 358.800,151.997 359.115,152.353 359.500 C 152.709 359.885,153.360 360.260,153.800 360.333 C 154.240 360.407,154.771 360.632,154.980 360.833 C 155.189 361.035,155.684 361.200,156.080 361.200 C 156.476 361.200,156.800 361.380,156.800 361.600 C 156.800 361.820,157.160 362.000,157.600 362.000 C 158.040 362.000,158.400 362.180,158.400 362.400 C 158.400 362.620,158.940 362.800,159.600 362.800 C 160.260 362.800,160.800 362.980,160.800 363.200 C 160.800 363.420,161.070 363.600,161.400 363.600 C 161.730 363.600,162.000 363.780,162.000 364.000 C 162.000 364.220,162.540 364.400,163.200 364.400 C 163.860 364.400,164.400 364.580,164.400 364.800 C 164.400 365.020,164.940 365.200,165.600 365.200 C 166.260 365.200,166.800 365.380,166.800 365.600 C 166.800 365.820,167.252 366.000,167.805 366.000 C 168.358 366.000,169.123 366.158,169.505 366.351 C 170.694 366.951,172.942 367.571,174.300 367.673 C 175.015 367.726,175.600 367.912,175.600 368.085 C 175.600 368.258,176.305 368.400,177.167 368.400 C 178.028 368.400,178.793 368.570,178.867 368.778 C 178.940 368.986,179.945 369.198,181.100 369.249 C 182.255 369.301,183.200 369.462,183.200 369.608 C 183.200 369.754,184.411 369.913,185.891 369.961 C 187.371 370.009,188.678 370.203,188.795 370.391 C 189.278 371.174,216.134 370.390,216.980 369.569 C 217.189 369.366,218.314 369.200,219.480 369.200 C 220.646 369.200,221.600 369.039,221.600 368.842 C 221.600 368.645,222.320 368.375,223.200 368.242 C 224.080 368.109,225.520 367.891,226.400 367.758 C 227.280 367.625,228.000 367.355,228.000 367.158 C 228.000 366.961,228.630 366.800,229.400 366.800 C 230.170 366.800,230.800 366.620,230.800 366.400 C 230.800 366.180,231.340 366.000,232.000 366.000 C 232.660 366.000,233.200 365.820,233.200 365.600 C 233.200 365.380,233.740 365.200,234.400 365.200 C 235.060 365.200,235.600 365.020,235.600 364.800 C 235.600 364.580,235.939 364.400,236.354 364.400 C 236.769 364.400,237.611 364.139,238.226 363.820 C 238.840 363.502,239.491 363.332,239.671 363.444 C 239.852 363.556,240.001 363.502,240.003 363.324 C 240.007 362.946,241.920 362.000,242.680 362.000 C 242.966 362.000,243.200 361.820,243.200 361.600 C 243.200 361.380,243.472 361.200,243.805 361.200 C 244.138 361.200,244.723 361.032,245.105 360.827 C 245.487 360.621,246.948 359.904,248.352 359.233 C 249.755 358.562,251.105 357.845,251.352 357.640 C 251.598 357.435,251.890 357.271,252.000 357.275 C 252.499 357.293,255.200 355.817,255.200 355.526 C 255.200 355.347,255.387 355.200,255.616 355.200 C 256.090 355.200,258.531 353.555,258.733 353.100 C 258.807 352.935,259.222 352.800,259.657 352.800 C 260.092 352.800,260.336 352.620,260.200 352.400 C 260.064 352.180,260.194 352.000,260.488 352.000 C 260.783 352.000,261.283 351.640,261.600 351.200 C 261.917 350.760,262.405 350.400,262.685 350.400 C 262.964 350.400,263.709 349.860,264.340 349.200 C 264.971 348.540,265.704 348.000,265.969 348.000 C 266.235 348.000,267.329 347.100,268.400 346.000 C 269.471 344.900,270.458 344.000,270.593 344.000 C 270.728 344.000,271.619 343.235,272.575 342.300 C 273.530 341.365,275.234 339.745,276.362 338.700 C 277.490 337.655,278.275 336.795,278.107 336.788 C 277.938 336.781,278.115 336.592,278.500 336.368 C 278.885 336.144,279.200 335.781,279.200 335.561 C 279.200 335.342,280.100 334.262,281.200 333.162 C 282.300 332.062,283.200 330.984,283.200 330.768 C 283.200 330.551,283.834 329.739,284.609 328.964 C 285.385 328.189,285.934 327.417,285.831 327.250 C 285.727 327.083,285.993 326.693,286.421 326.385 C 286.850 326.076,287.200 325.593,287.200 325.312 C 287.200 325.030,287.380 324.800,287.600 324.800 C 287.820 324.800,288.000 324.545,288.000 324.233 C 288.000 323.922,288.146 323.607,288.324 323.533 C 288.792 323.341,291.600 318.677,291.600 318.092 C 291.600 317.821,291.780 317.600,292.000 317.600 C 292.220 317.600,292.400 317.229,292.400 316.776 C 292.400 316.323,292.580 316.064,292.800 316.200 C 293.020 316.336,293.200 316.167,293.200 315.824 C 293.200 315.481,293.380 315.200,293.600 315.200 C 293.820 315.200,294.000 314.784,294.000 314.275 C 294.000 313.767,294.360 312.964,294.800 312.492 C 295.240 312.020,295.600 311.356,295.600 311.017 C 295.600 310.678,295.791 310.400,296.024 310.400 C 296.257 310.400,296.352 310.247,296.236 310.059 C 296.120 309.871,296.284 309.376,296.600 308.959 C 296.916 308.542,297.180 307.885,297.187 307.500 C 297.194 307.115,297.380 306.800,297.600 306.800 C 297.820 306.800,298.000 306.350,298.000 305.800 C 298.000 305.250,298.180 304.800,298.400 304.800 C 298.620 304.800,298.800 304.350,298.800 303.800 C 298.800 303.250,298.980 302.800,299.200 302.800 C 299.420 302.800,299.600 302.260,299.600 301.600 C 299.600 300.940,299.780 300.400,300.000 300.400 C 300.220 300.400,300.400 300.051,300.400 299.624 C 300.400 299.197,300.580 298.736,300.800 298.600 C 301.020 298.464,301.200 297.823,301.200 297.176 C 301.200 296.529,301.380 296.000,301.600 296.000 C 301.820 296.000,302.000 295.381,302.000 294.624 C 302.000 293.867,302.180 293.136,302.400 293.000 C 302.620 292.864,302.800 292.144,302.800 291.400 C 302.800 290.656,302.980 289.936,303.200 289.800 C 303.420 289.664,303.600 289.034,303.600 288.400 C 303.600 287.766,303.780 287.136,304.000 287.000 C 304.220 286.864,304.400 285.773,304.400 284.576 C 304.400 283.379,304.580 282.400,304.800 282.400 C 305.022 282.400,305.200 281.341,305.200 280.024 C 305.200 278.717,305.377 277.538,305.593 277.404 C 306.093 277.095,306.099 252.103,305.600 251.926 C 305.404 251.857,305.205 250.667,305.156 249.283 C 305.107 247.898,304.917 246.672,304.734 246.559 C 304.550 246.446,304.400 245.722,304.400 244.950 C 304.400 244.179,304.238 243.244,304.039 242.873 C 303.841 242.503,303.622 241.479,303.554 240.600 C 303.485 239.720,303.293 238.903,303.127 238.784 C 302.961 238.666,302.782 237.991,302.728 237.284 C 302.674 236.578,302.488 236.000,302.315 236.000 C 302.142 236.000,302.000 235.370,302.000 234.600 C 302.000 233.830,301.820 233.200,301.600 233.200 C 301.380 233.200,301.200 232.660,301.200 232.000 C 301.200 231.340,301.020 230.800,300.800 230.800 C 300.580 230.800,300.400 230.249,300.400 229.576 C 300.400 228.863,300.233 228.456,300.000 228.600 C 299.774 228.740,299.600 228.412,299.600 227.847 C 299.600 227.297,299.420 226.736,299.200 226.600 C 298.980 226.464,298.800 226.003,298.800 225.576 C 298.800 225.149,298.620 224.800,298.400 224.800 C 298.180 224.800,298.000 224.260,298.000 223.600 C 298.000 222.940,297.820 222.400,297.600 222.400 C 297.380 222.400,297.200 222.040,297.200 221.600 C 297.200 221.160,297.020 220.800,296.800 220.800 C 296.580 220.800,296.400 220.440,296.400 220.000 C 296.400 219.560,296.220 219.200,296.000 219.200 C 295.780 219.200,295.600 218.840,295.600 218.400 C 295.600 217.960,295.420 217.600,295.200 217.600 C 294.980 217.600,294.800 217.240,294.800 216.800 C 294.800 216.360,294.665 215.999,294.500 215.997 C 294.141 215.993,293.200 214.056,293.200 213.320 C 293.200 213.034,293.040 212.800,292.844 212.800 C 292.648 212.800,292.114 212.004,291.657 211.031 C 291.200 210.059,290.637 209.146,290.406 209.004 C 290.176 208.861,290.074 208.604,290.180 208.433 C 290.286 208.261,290.019 207.741,289.586 207.277 C 289.154 206.813,288.800 206.291,288.799 206.117 C 288.799 205.943,288.259 205.170,287.600 204.400 C 286.941 203.630,286.401 202.815,286.401 202.588 C 286.400 202.362,286.040 201.917,285.600 201.600 C 285.160 201.283,284.800 200.693,284.800 200.288 C 284.800 199.884,284.620 199.664,284.400 199.800 C 284.180 199.936,284.000 199.883,284.000 199.683 C 284.000 199.483,283.460 198.754,282.800 198.063 C 282.140 197.372,281.600 196.626,281.600 196.404 C 281.600 196.182,281.420 196.000,281.200 196.000 C 280.980 196.000,280.800 195.830,280.800 195.623 C 280.800 195.415,280.066 194.560,279.169 193.723 C 276.888 191.593,276.216 190.921,272.700 187.243 C 270.995 185.459,269.510 184.000,269.400 184.000 C 269.290 184.000,268.885 183.721,268.500 183.379 C 266.049 181.204,264.556 180.017,264.260 180.009 C 264.074 180.004,263.439 179.505,262.850 178.900 C 261.871 177.895,261.397 177.566,259.015 176.238 C 258.584 175.997,257.986 175.575,257.687 175.300 C 257.388 175.025,256.968 174.800,256.755 174.800 C 256.541 174.800,255.980 174.440,255.508 174.000 C 255.036 173.560,254.413 173.200,254.125 173.200 C 253.836 173.200,253.600 173.009,253.600 172.776 C 253.600 172.543,253.435 172.455,253.232 172.580 C 253.030 172.705,252.599 172.542,252.275 172.218 C 251.951 171.894,251.448 171.577,251.158 171.514 C 250.868 171.451,250.275 171.085,249.840 170.700 C 249.116 170.060,248.327 169.814,247.470 169.963 C 247.289 169.994,247.255 169.835,247.394 169.610 C 247.533 169.384,247.367 169.200,247.024 169.200 C 246.681 169.200,246.400 169.020,246.400 168.800 C 246.400 168.580,245.961 168.400,245.424 168.400 C 244.887 168.400,244.336 168.220,244.200 168.000 C 244.064 167.780,243.603 167.600,243.176 167.600 C 242.749 167.600,242.400 167.420,242.400 167.200 C 242.400 166.980,242.040 166.800,241.600 166.800 C 241.160 166.800,240.800 166.620,240.800 166.400 C 240.800 166.180,240.350 166.000,239.800 166.000 C 239.250 166.000,238.800 165.820,238.800 165.600 C 238.800 165.380,238.451 165.200,238.024 165.200 C 237.597 165.200,237.136 165.020,237.000 164.800 C 236.864 164.580,236.213 164.400,235.553 164.400 C 234.855 164.400,234.456 164.233,234.600 164.000 C 234.744 163.767,234.337 163.600,233.624 163.600 C 232.951 163.600,232.400 163.431,232.400 163.225 C 232.400 163.019,232.085 162.857,231.700 162.867 C 230.546 162.895,226.800 161.836,226.800 161.482 C 226.800 161.301,226.655 161.242,226.478 161.352 C 226.301 161.461,225.446 161.365,224.578 161.137 C 223.710 160.909,222.324 160.660,221.497 160.583 C 220.670 160.506,219.770 160.302,219.497 160.128 C 218.812 159.694,214.496 159.194,210.312 159.065 C 208.393 159.005,206.698 158.831,206.545 158.678 C 206.392 158.525,203.447 158.400,200.000 158.400 C 196.553 158.400,193.608 158.525,193.455 158.678 M203.200 188.320 C 203.200 188.496,204.855 188.687,206.878 188.745 C 208.901 188.802,210.719 188.950,210.918 189.073 C 211.117 189.196,212.297 189.443,213.540 189.623 C 214.783 189.802,216.610 190.154,217.600 190.405 C 218.590 190.656,220.435 191.061,221.700 191.307 C 222.965 191.552,224.000 191.898,224.000 192.076 C 224.000 192.254,224.439 192.400,224.976 192.400 C 225.513 192.400,226.064 192.580,226.200 192.800 C 226.336 193.020,226.797 193.200,227.224 193.200 C 227.651 193.200,228.000 193.391,228.000 193.624 C 228.000 193.857,228.148 193.956,228.329 193.844 C 228.509 193.732,229.160 193.902,229.774 194.220 C 230.389 194.539,231.151 194.800,231.469 194.800 C 231.787 194.800,231.936 194.980,231.800 195.200 C 231.664 195.420,231.923 195.600,232.376 195.600 C 232.829 195.600,233.200 195.780,233.200 196.000 C 233.200 196.220,233.434 196.400,233.720 196.400 C 234.456 196.400,236.393 197.341,236.397 197.700 C 236.399 197.865,236.760 198.000,237.200 198.000 C 237.640 198.000,238.000 198.180,238.000 198.400 C 238.000 198.620,238.236 198.800,238.525 198.800 C 238.813 198.800,239.398 199.115,239.825 199.500 C 240.251 199.885,241.095 200.455,241.700 200.768 C 242.305 201.080,242.800 201.485,242.800 201.668 C 242.800 201.850,243.070 202.000,243.400 202.000 C 243.730 202.000,244.000 202.180,244.000 202.400 C 244.000 202.620,244.210 202.800,244.466 202.800 C 244.723 202.800,245.218 203.066,245.566 203.391 C 245.915 203.716,246.687 204.436,247.282 204.991 C 247.877 205.546,248.470 206.000,248.601 206.000 C 248.731 206.000,249.255 206.450,249.765 207.000 C 250.275 207.550,250.907 208.000,251.169 208.000 C 251.432 208.000,251.536 208.180,251.400 208.400 C 251.264 208.620,251.347 208.800,251.585 208.800 C 252.249 208.800,255.536 211.968,255.828 212.890 C 256.033 213.535,256.161 213.590,256.438 213.153 C 256.728 212.694,256.789 212.702,256.794 213.200 C 256.798 213.530,257.261 214.340,257.824 215.000 C 258.387 215.660,259.197 216.606,259.624 217.103 C 260.051 217.600,260.400 218.140,260.400 218.303 C 260.401 218.466,260.872 219.140,261.447 219.800 C 262.023 220.460,262.944 221.706,263.495 222.569 C 264.046 223.431,264.835 224.500,265.248 224.944 C 265.662 225.388,266.000 225.987,266.000 226.275 C 266.000 226.564,266.180 226.800,266.400 226.800 C 266.620 226.800,266.800 227.160,266.800 227.600 C 266.800 228.040,266.980 228.400,267.200 228.400 C 267.420 228.400,267.600 228.745,267.600 229.167 C 267.600 229.588,267.735 229.993,267.900 230.067 C 268.399 230.288,270.000 233.622,270.000 234.438 C 270.000 234.857,270.180 235.200,270.400 235.200 C 270.620 235.200,270.800 235.549,270.800 235.976 C 270.800 236.403,270.980 236.864,271.200 237.000 C 271.420 237.136,271.600 237.597,271.600 238.024 C 271.600 238.451,271.780 238.800,272.000 238.800 C 272.220 238.800,272.400 239.329,272.400 239.976 C 272.400 240.623,272.580 241.264,272.800 241.400 C 273.020 241.536,273.200 242.076,273.200 242.600 C 273.200 243.124,273.380 243.664,273.600 243.800 C 273.820 243.936,274.000 244.757,274.000 245.624 C 274.000 246.491,274.162 247.200,274.360 247.200 C 274.718 247.200,275.227 250.296,275.530 254.324 C 275.569 254.832,275.735 255.164,275.900 255.062 C 276.335 254.793,276.270 273.749,275.835 274.064 C 275.635 274.209,275.455 275.316,275.435 276.524 C 275.416 277.733,275.265 278.638,275.100 278.537 C 274.935 278.436,274.800 279.263,274.800 280.376 C 274.800 281.489,274.640 282.400,274.444 282.400 C 274.248 282.400,273.978 283.030,273.844 283.800 C 273.710 284.570,273.490 285.830,273.356 286.600 C 273.222 287.370,272.952 288.000,272.756 288.000 C 272.560 288.000,272.400 288.439,272.400 288.976 C 272.400 289.513,272.220 290.064,272.000 290.200 C 271.780 290.336,271.600 290.709,271.600 291.028 C 271.600 291.542,270.785 293.580,269.493 296.300 C 269.257 296.795,268.915 297.200,268.732 297.200 C 268.550 297.200,268.400 297.560,268.400 298.000 C 268.400 298.440,268.220 298.800,268.000 298.800 C 267.780 298.800,267.600 299.160,267.600 299.600 C 267.600 300.040,267.420 300.400,267.200 300.400 C 266.980 300.400,266.796 300.715,266.791 301.100 C 266.786 301.485,266.430 302.250,266.000 302.800 C 265.570 303.350,265.214 304.006,265.209 304.257 C 265.172 306.167,262.973 304.161,241.195 282.346 C 228.658 269.788,218.400 259.647,218.400 259.810 C 218.400 259.974,217.996 259.589,217.502 258.954 C 217.007 258.319,203.777 244.969,188.102 229.287 C 160.247 201.421,158.856 199.929,160.300 199.471 C 160.985 199.254,163.204 197.996,163.600 197.600 C 164.078 197.122,165.639 196.400,166.195 196.400 C 166.528 196.400,166.800 196.220,166.800 196.000 C 166.800 195.780,167.160 195.600,167.600 195.600 C 168.040 195.600,168.400 195.420,168.400 195.200 C 168.400 194.980,168.636 194.800,168.925 194.800 C 169.214 194.800,170.195 194.440,171.106 194.000 C 172.016 193.560,173.051 193.200,173.404 193.200 C 173.758 193.200,173.936 193.020,173.800 192.800 C 173.656 192.567,174.063 192.400,174.776 192.400 C 175.449 192.400,176.000 192.240,176.000 192.044 C 176.000 191.726,177.160 191.440,179.881 191.086 C 180.365 191.023,180.890 190.843,181.047 190.686 C 181.205 190.529,182.013 190.400,182.843 190.400 C 183.673 190.400,184.464 190.220,184.600 190.000 C 184.736 189.780,185.455 189.600,186.198 189.600 C 186.940 189.600,188.021 189.420,188.599 189.201 C 189.176 188.981,191.527 188.786,193.821 188.768 C 196.116 188.749,198.096 188.569,198.220 188.367 C 198.498 187.917,203.200 187.873,203.200 188.320 M139.351 226.990 C 141.028 228.635,142.400 230.165,142.400 230.390 C 142.400 230.616,142.700 230.800,143.067 230.800 C 143.433 230.800,143.636 230.897,143.517 231.016 C 143.245 231.288,151.859 240.000,152.400 240.000 C 152.620 240.000,152.800 240.270,152.800 240.600 C 152.800 240.930,152.977 241.200,153.193 241.200 C 153.705 241.200,158.800 246.295,158.800 246.807 C 158.800 247.023,159.070 247.200,159.400 247.200 C 159.730 247.200,160.000 247.356,160.000 247.546 C 160.000 247.880,164.733 252.717,171.655 259.457 C 173.495 261.249,177.364 265.119,180.253 268.057 C 183.142 270.996,187.057 274.875,188.953 276.679 C 190.849 278.482,192.400 280.147,192.400 280.379 C 192.400 280.610,192.700 280.800,193.067 280.800 C 193.433 280.800,193.636 280.897,193.517 281.016 C 193.245 281.288,201.859 290.000,202.400 290.000 C 202.620 290.000,202.800 290.270,202.800 290.600 C 202.800 290.930,202.977 291.200,203.193 291.200 C 203.705 291.200,208.800 296.295,208.800 296.807 C 208.800 297.023,208.986 297.200,209.212 297.200 C 209.439 297.200,210.294 297.952,211.112 298.871 C 211.931 299.790,214.464 302.355,216.742 304.571 C 219.020 306.787,221.990 309.730,223.342 311.111 C 230.614 318.538,235.790 323.681,238.326 326.000 C 241.389 328.801,241.645 329.200,240.376 329.200 C 239.923 329.200,239.664 329.380,239.800 329.600 C 239.936 329.820,239.711 330.000,239.299 330.000 C 238.888 330.000,238.164 330.360,237.692 330.800 C 237.220 331.240,236.556 331.600,236.217 331.600 C 235.878 331.600,235.599 331.735,235.597 331.900 C 235.593 332.259,233.656 333.200,232.920 333.200 C 232.634 333.200,232.400 333.380,232.400 333.600 C 232.400 333.820,232.040 334.000,231.600 334.000 C 231.160 334.000,230.800 334.180,230.800 334.400 C 230.800 334.620,230.521 334.800,230.181 334.800 C 229.840 334.800,228.816 335.160,227.906 335.600 C 226.995 336.040,225.924 336.400,225.525 336.400 C 225.126 336.400,224.800 336.580,224.800 336.800 C 224.800 337.020,224.361 337.200,223.824 337.200 C 223.287 337.200,222.736 337.380,222.600 337.600 C 222.464 337.820,221.823 338.000,221.176 338.000 C 220.529 338.000,220.000 338.180,220.000 338.400 C 220.000 338.620,219.370 338.800,218.600 338.800 C 217.830 338.800,217.200 338.980,217.200 339.200 C 217.200 339.420,216.300 339.600,215.200 339.600 C 214.100 339.600,213.200 339.780,213.200 340.000 C 213.200 340.229,212.000 340.400,210.400 340.400 C 208.800 340.400,207.600 340.571,207.600 340.800 C 207.600 341.053,204.800 341.200,200.000 341.200 C 195.200 341.200,192.400 341.053,192.400 340.800 C 192.400 340.571,191.200 340.400,189.600 340.400 C 188.000 340.400,186.800 340.229,186.800 340.000 C 186.800 339.780,185.990 339.600,185.000 339.600 C 184.010 339.600,183.200 339.420,183.200 339.200 C 183.200 338.980,182.480 338.800,181.600 338.800 C 180.720 338.800,180.000 338.620,180.000 338.400 C 180.000 338.180,179.359 338.000,178.576 338.000 C 177.729 338.000,177.253 337.838,177.400 337.600 C 177.540 337.374,177.210 337.200,176.642 337.200 C 176.090 337.200,175.134 336.998,174.519 336.750 C 173.903 336.503,173.040 336.158,172.600 335.984 C 169.866 334.902,169.200 334.572,169.200 334.302 C 169.200 334.136,168.739 334.000,168.176 334.000 C 167.596 334.000,167.260 333.827,167.400 333.600 C 167.536 333.380,167.277 333.200,166.824 333.200 C 166.371 333.200,166.000 333.020,166.000 332.800 C 166.000 332.580,165.640 332.400,165.200 332.400 C 164.760 332.400,164.400 332.220,164.400 332.000 C 164.400 331.780,164.040 331.600,163.600 331.600 C 163.160 331.600,162.800 331.420,162.800 331.200 C 162.800 330.980,162.440 330.800,162.000 330.800 C 161.560 330.800,161.200 330.620,161.200 330.400 C 161.200 330.180,161.016 330.000,160.791 330.000 C 160.188 330.000,157.082 327.914,156.477 327.102 C 156.190 326.716,155.765 326.400,155.533 326.400 C 155.301 326.400,154.251 325.680,153.200 324.800 C 152.149 323.920,151.177 323.200,151.040 323.200 C 150.618 323.200,141.600 314.034,141.600 313.604 C 141.600 313.382,141.420 313.200,141.200 313.200 C 140.980 313.200,140.795 312.975,140.789 312.700 C 140.783 312.425,140.108 311.456,139.289 310.546 C 137.066 308.076,136.379 307.200,136.666 307.200 C 136.808 307.200,136.663 306.885,136.345 306.500 C 136.026 306.115,135.518 305.305,135.215 304.700 C 134.912 304.095,134.515 303.600,134.332 303.600 C 134.150 303.600,134.000 303.322,134.000 302.983 C 134.000 302.644,133.640 301.980,133.200 301.508 C 132.760 301.036,132.400 300.233,132.400 299.725 C 132.400 299.216,132.265 298.799,132.100 298.797 C 131.741 298.793,130.800 296.856,130.800 296.120 C 130.800 295.834,130.620 295.600,130.400 295.600 C 130.180 295.600,130.000 295.240,130.000 294.800 C 130.000 294.360,129.840 294.000,129.644 294.000 C 129.448 294.000,129.049 293.190,128.757 292.200 C 128.465 291.210,128.085 290.400,127.913 290.400 C 127.741 290.400,127.600 289.860,127.600 289.200 C 127.600 288.540,127.420 288.000,127.200 288.000 C 126.980 288.000,126.800 287.471,126.800 286.824 C 126.800 286.177,126.620 285.536,126.400 285.400 C 126.180 285.264,126.000 284.659,126.000 284.056 C 126.000 283.453,125.837 282.789,125.639 282.580 C 125.232 282.152,124.780 278.967,124.804 276.693 C 124.813 275.864,124.617 274.806,124.369 274.343 C 123.836 273.347,123.740 255.230,124.265 254.845 C 124.449 254.710,124.607 254.420,124.615 254.200 C 124.703 251.787,125.362 247.147,125.642 246.974 C 125.839 246.852,126.000 246.133,126.000 245.376 C 126.000 244.619,126.180 244.000,126.400 244.000 C 126.620 244.000,126.800 243.460,126.800 242.800 C 126.800 242.140,126.980 241.600,127.200 241.600 C 127.420 241.600,127.600 241.161,127.600 240.624 C 127.600 240.087,127.780 239.536,128.000 239.400 C 128.220 239.264,128.400 238.623,128.400 237.976 C 128.400 237.329,128.536 236.800,128.702 236.800 C 128.869 236.800,129.240 236.215,129.529 235.500 C 129.817 234.785,130.221 233.887,130.426 233.505 C 130.632 233.123,130.800 232.538,130.800 232.205 C 130.800 231.872,130.980 231.600,131.200 231.600 C 131.420 231.600,131.600 231.240,131.600 230.800 C 131.600 230.360,131.735 229.999,131.900 229.997 C 132.237 229.993,133.200 228.075,133.200 227.409 C 133.200 227.171,133.560 226.717,134.000 226.400 C 134.440 226.083,134.800 225.518,134.800 225.145 C 134.800 224.547,135.269 224.130,136.051 224.032 C 136.189 224.014,137.674 225.346,139.351 226.990 "
            stroke="none" fill="#2c7cbc" fill-rule="evenodd"></path>
        <path id="path1"
            d="M150.000 29.600 C 149.670 29.813,148.196 29.991,146.724 29.994 C 145.252 29.997,143.936 30.180,143.800 30.400 C 143.664 30.620,142.573 30.800,141.376 30.800 C 140.179 30.800,139.200 30.980,139.200 31.200 C 139.200 31.420,138.390 31.600,137.400 31.600 C 136.410 31.600,135.600 31.780,135.600 32.000 C 135.600 32.220,134.891 32.400,134.024 32.400 C 133.157 32.400,132.336 32.580,132.200 32.800 C 132.064 33.020,131.333 33.200,130.576 33.200 C 129.819 33.200,129.200 33.380,129.200 33.600 C 129.200 33.820,128.570 34.000,127.800 34.000 C 127.030 34.000,126.400 34.180,126.400 34.400 C 126.400 34.620,125.860 34.800,125.200 34.800 C 124.540 34.800,124.000 34.980,124.000 35.200 C 124.000 35.420,123.460 35.600,122.800 35.600 C 122.140 35.600,121.600 35.780,121.600 36.000 C 121.600 36.220,121.161 36.400,120.624 36.400 C 120.087 36.400,119.536 36.580,119.400 36.800 C 119.264 37.020,118.803 37.200,118.376 37.200 C 117.949 37.200,117.600 37.380,117.600 37.600 C 117.600 37.820,117.139 38.000,116.576 38.000 C 115.996 38.000,115.660 38.173,115.800 38.400 C 115.944 38.633,115.537 38.800,114.824 38.800 C 114.151 38.800,113.599 38.935,113.597 39.100 C 113.593 39.459,111.656 40.400,110.920 40.400 C 110.634 40.400,110.400 40.580,110.400 40.800 C 110.400 41.020,110.029 41.200,109.576 41.200 C 109.123 41.200,108.864 41.380,109.000 41.600 C 109.136 41.820,108.877 42.000,108.424 42.000 C 107.971 42.000,107.600 42.163,107.600 42.363 C 107.600 42.562,107.240 42.631,106.800 42.516 C 106.353 42.399,106.000 42.504,106.000 42.753 C 106.000 42.999,105.640 43.200,105.200 43.200 C 104.760 43.200,104.400 43.380,104.400 43.600 C 104.400 43.820,104.201 44.000,103.958 44.000 C 103.715 44.000,102.770 44.495,101.858 45.100 C 100.946 45.705,99.705 46.455,99.100 46.768 C 98.495 47.080,98.000 47.485,98.000 47.668 C 98.000 47.850,97.659 48.000,97.243 48.000 C 96.826 48.000,96.387 48.256,96.267 48.570 C 96.147 48.883,95.407 49.444,94.624 49.815 C 93.841 50.187,93.200 50.651,93.200 50.846 C 93.200 51.041,93.002 51.200,92.760 51.200 C 92.519 51.200,91.817 51.740,91.200 52.400 C 90.583 53.060,89.870 53.600,89.614 53.600 C 89.358 53.600,88.271 54.500,87.200 55.600 C 86.129 56.700,85.102 57.600,84.918 57.600 C 83.951 57.600,74.800 66.586,74.800 67.536 C 74.800 67.747,73.900 68.838,72.800 69.961 C 71.700 71.085,70.800 72.201,70.800 72.442 C 70.800 72.682,70.260 73.383,69.600 74.000 C 68.940 74.617,68.400 75.279,68.400 75.472 C 68.400 75.665,68.040 76.083,67.600 76.400 C 67.160 76.717,66.800 77.173,66.800 77.413 C 66.800 77.653,66.485 78.198,66.100 78.625 C 65.715 79.051,65.145 79.895,64.832 80.500 C 64.520 81.105,64.115 81.600,63.932 81.600 C 63.750 81.600,63.600 81.945,63.600 82.367 C 63.600 82.788,63.465 83.193,63.300 83.267 C 62.924 83.434,61.625 85.564,61.329 86.500 C 61.207 86.885,60.948 87.200,60.753 87.200 C 60.559 87.200,60.400 87.560,60.400 88.000 C 60.400 88.440,60.220 88.800,60.000 88.800 C 59.780 88.800,59.600 89.124,59.600 89.520 C 59.600 89.916,59.384 90.456,59.120 90.720 C 58.856 90.984,58.763 91.200,58.913 91.200 C 59.063 91.200,58.829 91.835,58.393 92.612 C 57.957 93.389,57.600 94.389,57.600 94.836 C 57.600 95.282,57.457 95.559,57.283 95.451 C 57.109 95.344,56.937 95.645,56.901 96.122 C 56.865 96.598,56.648 97.051,56.418 97.127 C 56.188 97.204,56.000 97.802,56.000 98.457 C 56.000 99.149,55.832 99.544,55.600 99.400 C 55.373 99.260,55.200 99.596,55.200 100.176 C 55.200 100.739,55.020 101.200,54.800 101.200 C 54.580 101.200,54.400 101.740,54.400 102.400 C 54.400 103.060,54.220 103.600,54.000 103.600 C 53.780 103.600,53.600 104.140,53.600 104.800 C 53.600 105.460,53.420 106.000,53.200 106.000 C 52.980 106.000,52.800 106.720,52.800 107.600 C 52.800 108.480,52.620 109.200,52.400 109.200 C 52.180 109.200,52.000 109.819,52.000 110.576 C 52.000 111.333,51.820 112.064,51.600 112.200 C 51.380 112.336,51.200 113.236,51.200 114.200 C 51.200 115.164,51.020 116.064,50.800 116.200 C 50.580 116.336,50.400 117.607,50.400 119.024 C 50.400 120.475,50.225 121.600,50.000 121.600 C 49.752 121.600,49.600 123.800,49.600 127.400 C 49.600 132.933,49.563 133.200,48.800 133.200 C 48.360 133.200,48.000 133.380,48.000 133.600 C 48.000 133.820,47.640 134.000,47.200 134.000 C 46.760 134.000,46.400 134.180,46.400 134.400 C 46.400 134.620,46.040 134.800,45.600 134.800 C 45.160 134.800,44.800 134.980,44.800 135.200 C 44.800 135.420,44.459 135.600,44.043 135.600 C 43.626 135.600,43.178 135.881,43.046 136.225 C 42.914 136.569,42.657 136.759,42.476 136.647 C 42.294 136.535,41.893 136.793,41.585 137.221 C 41.276 137.650,40.703 138.000,40.312 138.000 C 39.920 138.000,39.600 138.180,39.600 138.400 C 39.600 138.620,39.357 138.800,39.059 138.800 C 38.762 138.800,37.954 139.340,37.263 140.000 C 36.572 140.660,35.775 141.200,35.492 141.200 C 35.209 141.200,34.724 141.550,34.415 141.979 C 34.107 142.407,33.726 142.678,33.569 142.581 C 33.412 142.484,33.181 142.674,33.054 143.002 C 32.928 143.331,32.588 143.600,32.297 143.600 C 31.610 143.600,27.546 147.413,27.879 147.746 C 28.019 147.886,27.910 148.000,27.638 148.000 C 27.366 148.000,26.873 148.270,26.543 148.600 C 26.213 148.930,26.037 149.200,26.152 149.200 C 26.267 149.200,25.289 150.274,23.980 151.588 C 22.671 152.901,21.600 154.179,21.600 154.427 C 21.600 154.676,21.060 155.383,20.400 156.000 C 19.740 156.617,19.199 157.274,19.198 157.460 C 19.197 157.647,18.657 158.375,17.998 159.078 C 17.339 159.781,16.800 160.546,16.800 160.778 C 16.800 161.010,16.620 161.200,16.400 161.200 C 16.180 161.200,16.000 161.520,16.000 161.912 C 16.000 162.303,15.640 162.883,15.200 163.200 C 14.760 163.517,14.400 164.097,14.400 164.488 C 14.400 164.880,14.220 165.200,14.000 165.200 C 13.780 165.200,13.600 165.560,13.600 166.000 C 13.600 166.440,13.420 166.800,13.200 166.800 C 12.980 166.800,12.800 167.160,12.800 167.600 C 12.800 168.040,12.620 168.400,12.400 168.400 C 12.180 168.400,12.000 168.760,12.000 169.200 C 12.000 169.640,11.820 170.000,11.600 170.000 C 11.380 170.000,11.200 170.360,11.200 170.800 C 11.200 171.240,11.020 171.600,10.800 171.600 C 10.580 171.600,10.400 171.949,10.400 172.376 C 10.400 172.803,10.208 173.272,9.973 173.417 C 9.738 173.562,9.642 173.933,9.760 174.240 C 9.878 174.548,9.756 174.803,9.487 174.806 C 9.179 174.810,9.221 174.955,9.600 175.200 C 10.106 175.527,10.083 175.589,9.457 175.594 C 8.970 175.598,8.792 175.802,8.940 176.187 C 9.064 176.510,8.993 176.881,8.783 177.011 C 8.572 177.141,8.400 177.687,8.400 178.224 C 8.400 178.761,8.220 179.200,8.000 179.200 C 7.780 179.200,7.600 179.920,7.600 180.800 C 7.600 181.680,7.420 182.400,7.200 182.400 C 6.980 182.400,6.800 182.929,6.800 183.576 C 6.800 184.223,6.620 184.864,6.400 185.000 C 6.180 185.136,6.000 186.047,6.000 187.024 C 6.000 188.001,5.820 188.800,5.600 188.800 C 5.375 188.800,5.200 189.925,5.200 191.376 C 5.200 192.793,5.020 194.064,4.800 194.200 C 4.258 194.535,4.258 212.665,4.800 213.000 C 5.020 213.136,5.200 214.407,5.200 215.824 C 5.200 217.275,5.375 218.400,5.600 218.400 C 5.820 218.400,6.000 219.199,6.000 220.176 C 6.000 221.153,6.180 222.064,6.400 222.200 C 6.620 222.336,6.800 223.067,6.800 223.824 C 6.800 224.581,6.980 225.200,7.200 225.200 C 7.420 225.200,7.600 225.740,7.600 226.400 C 7.600 227.060,7.780 227.600,8.000 227.600 C 8.220 227.600,8.400 228.104,8.400 228.720 C 8.400 229.336,8.616 230.056,8.880 230.320 C 9.144 230.584,9.229 230.800,9.070 230.800 C 8.910 230.800,9.059 231.340,9.400 232.000 C 9.741 232.660,9.890 233.200,9.730 233.200 C 9.571 233.200,9.656 233.416,9.920 233.680 C 10.184 233.944,10.400 234.484,10.400 234.880 C 10.400 235.276,10.580 235.600,10.800 235.600 C 11.020 235.600,11.200 235.960,11.200 236.400 C 11.200 236.840,11.380 237.200,11.600 237.200 C 11.820 237.200,12.000 237.560,12.000 238.000 C 12.000 238.440,12.146 238.800,12.325 238.800 C 12.504 238.800,12.898 239.430,13.200 240.200 C 13.502 240.970,13.896 241.600,14.075 241.600 C 14.254 241.600,14.400 241.878,14.400 242.217 C 14.400 242.556,14.760 243.220,15.200 243.692 C 15.640 244.164,16.000 244.787,16.000 245.075 C 16.000 245.364,16.180 245.600,16.400 245.600 C 16.620 245.600,16.800 245.843,16.800 246.141 C 16.800 246.438,17.340 247.246,18.000 247.937 C 18.660 248.628,19.200 249.388,19.200 249.628 C 19.200 249.867,19.920 250.754,20.800 251.600 C 21.680 252.446,22.400 253.338,22.400 253.582 C 22.400 254.158,27.835 259.600,28.410 259.600 C 28.650 259.600,28.772 259.735,28.680 259.900 C 28.479 260.261,30.830 262.552,31.570 262.715 C 31.857 262.779,32.777 263.544,33.615 264.415 C 34.452 265.287,35.355 266.000,35.622 266.000 C 35.888 266.000,36.397 266.316,36.753 266.703 C 37.109 267.089,37.895 267.660,38.500 267.970 C 39.105 268.281,39.600 268.685,39.600 268.868 C 39.600 269.050,39.878 269.200,40.217 269.200 C 40.556 269.200,41.209 269.550,41.668 269.978 C 42.556 270.805,48.023 273.629,48.458 273.485 C 48.600 273.438,49.081 273.730,49.527 274.134 C 49.973 274.538,51.072 274.966,51.969 275.087 C 52.866 275.207,53.600 275.462,53.600 275.653 C 53.600 275.844,53.949 276.000,54.376 276.000 C 54.803 276.000,55.264 276.180,55.400 276.400 C 55.536 276.620,56.076 276.800,56.600 276.800 C 57.124 276.800,57.664 276.980,57.800 277.200 C 57.936 277.420,58.577 277.600,59.224 277.600 C 59.871 277.600,60.400 277.780,60.400 278.000 C 60.400 278.220,61.120 278.400,62.000 278.400 C 62.880 278.400,63.600 278.580,63.600 278.800 C 63.600 279.020,64.500 279.200,65.600 279.200 C 66.700 279.200,67.600 279.380,67.600 279.600 C 67.600 279.820,68.500 280.000,69.600 280.000 C 71.503 280.000,72.713 278.461,71.224 277.933 C 70.936 277.831,70.458 269.773,70.445 264.800 C 70.433 260.329,70.912 252.414,71.233 251.782 C 72.243 249.790,71.525 246.633,70.000 246.355 C 68.240 246.035,64.644 244.699,64.467 244.300 C 64.393 244.135,64.076 244.000,63.761 244.000 C 63.447 244.000,62.877 243.829,62.495 243.619 C 62.113 243.410,61.080 242.921,60.200 242.532 C 59.320 242.144,58.251 241.505,57.825 241.113 C 57.398 240.721,56.885 240.400,56.685 240.400 C 56.485 240.400,55.842 239.905,55.257 239.300 C 54.671 238.695,53.964 238.153,53.685 238.096 C 53.017 237.960,48.460 233.384,47.215 231.600 C 46.678 230.830,45.914 229.909,45.519 229.553 C 45.124 229.197,44.800 228.730,44.800 228.515 C 44.800 228.300,44.440 227.798,44.000 227.400 C 43.560 227.002,43.200 226.434,43.200 226.138 C 43.200 225.842,43.020 225.600,42.800 225.600 C 42.580 225.600,42.400 225.240,42.400 224.800 C 42.400 224.360,42.220 224.000,42.000 224.000 C 41.780 224.000,41.600 223.640,41.600 223.200 C 41.600 222.760,41.409 222.400,41.176 222.400 C 40.943 222.400,40.861 222.225,40.993 222.011 C 41.125 221.798,40.955 221.198,40.615 220.679 C 40.275 220.161,40.118 219.616,40.265 219.468 C 40.413 219.321,40.323 219.200,40.067 219.200 C 39.810 219.200,39.600 218.660,39.600 218.000 C 39.600 217.340,39.420 216.800,39.200 216.800 C 38.980 216.800,38.800 216.181,38.800 215.424 C 38.800 214.667,38.620 213.936,38.400 213.800 C 38.180 213.664,38.000 212.879,38.000 212.056 C 38.000 211.233,37.811 210.371,37.580 210.140 C 36.766 209.326,37.538 193.976,38.441 193.020 C 38.638 192.811,38.800 192.147,38.800 191.544 C 38.800 190.941,38.980 190.336,39.200 190.200 C 39.420 190.064,39.600 189.637,39.600 189.251 C 39.600 188.865,40.050 187.617,40.600 186.477 C 41.150 185.337,41.600 184.133,41.600 183.802 C 41.600 183.471,41.780 183.200,42.000 183.200 C 42.220 183.200,42.400 182.840,42.400 182.400 C 42.400 181.960,42.580 181.600,42.800 181.600 C 43.020 181.600,43.200 181.280,43.200 180.888 C 43.200 180.497,43.560 179.917,44.000 179.600 C 44.440 179.283,44.800 178.775,44.800 178.472 C 44.800 178.169,45.340 177.417,46.000 176.800 C 46.660 176.183,47.200 175.481,47.200 175.240 C 47.200 174.998,47.380 174.800,47.600 174.800 C 47.820 174.800,48.000 174.500,48.000 174.133 C 48.000 173.767,48.110 173.577,48.245 173.712 C 48.380 173.847,49.525 172.887,50.789 171.579 C 52.054 170.270,53.304 169.200,53.568 169.200 C 53.831 169.200,53.936 169.020,53.800 168.800 C 53.664 168.580,53.884 168.400,54.288 168.400 C 54.693 168.400,55.283 168.040,55.600 167.600 C 55.917 167.160,56.407 166.800,56.688 166.800 C 56.970 166.800,57.200 166.620,57.200 166.400 C 57.200 166.180,57.470 166.000,57.800 166.000 C 58.130 166.000,58.400 165.820,58.400 165.600 C 58.400 165.380,58.670 165.200,59.000 165.200 C 59.330 165.200,59.600 165.020,59.600 164.800 C 59.600 164.580,59.960 164.400,60.400 164.400 C 60.840 164.400,61.200 164.220,61.200 164.000 C 61.200 163.780,61.560 163.600,62.000 163.600 C 62.440 163.600,62.800 163.420,62.800 163.200 C 62.800 162.980,63.145 162.800,63.567 162.800 C 63.988 162.800,64.393 162.664,64.467 162.498 C 64.657 162.067,69.626 160.391,70.700 160.396 C 71.195 160.398,71.600 160.220,71.600 160.000 C 71.600 159.780,72.050 159.600,72.600 159.600 C 73.150 159.600,73.600 159.420,73.600 159.200 C 73.600 158.980,73.957 158.800,74.393 158.800 C 74.829 158.800,75.811 158.192,76.576 157.450 C 77.341 156.707,78.064 156.197,78.183 156.316 C 78.302 156.436,78.400 156.350,78.400 156.126 C 78.400 155.902,78.940 155.154,79.600 154.463 C 80.260 153.772,80.800 152.936,80.800 152.604 C 80.800 152.272,80.980 152.000,81.200 152.000 C 81.420 152.000,81.600 151.651,81.600 151.224 C 81.600 150.797,81.780 150.336,82.000 150.200 C 82.220 150.064,82.400 149.153,82.400 148.176 C 82.400 147.199,82.580 146.400,82.800 146.400 C 83.322 146.400,83.322 142.922,82.800 142.600 C 82.255 142.263,82.255 124.400,82.800 124.400 C 83.020 124.400,83.200 123.511,83.200 122.424 C 83.200 121.337,83.380 120.336,83.600 120.200 C 83.820 120.064,84.000 119.243,84.000 118.376 C 84.000 117.509,84.180 116.800,84.400 116.800 C 84.620 116.800,84.800 116.260,84.800 115.600 C 84.800 114.940,84.980 114.400,85.200 114.400 C 85.420 114.400,85.600 113.860,85.600 113.200 C 85.600 112.540,85.780 112.000,86.000 112.000 C 86.220 112.000,86.400 111.728,86.400 111.395 C 86.400 111.062,86.564 110.477,86.765 110.095 C 87.755 108.208,90.056 103.190,90.056 102.914 C 90.057 102.741,90.293 102.330,90.581 102.000 C 90.869 101.670,91.229 100.995,91.380 100.500 C 91.530 100.005,91.822 99.600,92.027 99.600 C 92.232 99.600,92.400 99.280,92.400 98.888 C 92.400 98.497,92.760 97.917,93.200 97.600 C 93.640 97.283,94.000 96.791,94.000 96.508 C 94.000 96.225,94.540 95.428,95.200 94.737 C 95.860 94.046,96.400 93.331,96.400 93.147 C 96.400 92.963,97.255 91.903,98.300 90.791 C 102.795 86.010,105.579 83.200,105.820 83.200 C 105.963 83.200,106.961 82.300,108.038 81.200 C 109.115 80.100,110.195 79.200,110.438 79.200 C 110.680 79.200,111.383 78.660,112.000 78.000 C 112.617 77.340,113.343 76.800,113.614 76.800 C 113.884 76.800,114.397 76.482,114.753 76.093 C 115.109 75.705,115.940 75.197,116.600 74.965 C 117.260 74.732,117.751 74.317,117.690 74.041 C 117.630 73.766,117.739 73.639,117.934 73.759 C 118.350 74.016,120.392 73.138,120.397 72.700 C 120.399 72.535,120.672 72.400,121.005 72.400 C 121.672 72.400,123.063 71.681,123.917 70.896 C 124.218 70.619,124.630 70.495,124.832 70.620 C 125.035 70.745,125.200 70.657,125.200 70.424 C 125.200 70.191,125.560 70.000,126.000 70.000 C 126.440 70.000,126.800 69.820,126.800 69.600 C 126.800 69.380,127.160 69.200,127.600 69.200 C 128.040 69.200,128.400 69.020,128.400 68.800 C 128.400 68.580,128.839 68.400,129.376 68.400 C 129.913 68.400,130.464 68.220,130.600 68.000 C 130.736 67.780,131.197 67.600,131.624 67.600 C 132.051 67.600,132.400 67.420,132.400 67.200 C 132.400 66.980,132.940 66.800,133.600 66.800 C 134.260 66.800,134.800 66.620,134.800 66.400 C 134.800 66.180,135.340 66.000,136.000 66.000 C 136.660 66.000,137.200 65.820,137.200 65.600 C 137.200 65.380,137.830 65.200,138.600 65.200 C 139.370 65.200,140.000 65.020,140.000 64.800 C 140.000 64.580,140.720 64.400,141.600 64.400 C 142.480 64.400,143.200 64.220,143.200 64.000 C 143.200 63.780,144.100 63.600,145.200 63.600 C 146.300 63.600,147.200 63.420,147.200 63.200 C 147.200 62.974,148.333 62.800,149.800 62.800 C 151.267 62.800,152.400 62.626,152.400 62.400 C 152.400 62.144,155.867 62.000,162.000 62.000 C 168.133 62.000,171.600 62.144,171.600 62.400 C 171.600 62.626,172.733 62.800,174.200 62.800 C 175.667 62.800,176.800 62.974,176.800 63.200 C 176.800 63.420,177.610 63.600,178.600 63.600 C 179.590 63.600,180.400 63.780,180.400 64.000 C 180.400 64.220,181.019 64.400,181.776 64.400 C 182.533 64.400,183.264 64.580,183.400 64.800 C 183.536 65.020,184.267 65.200,185.024 65.200 C 185.781 65.200,186.400 65.380,186.400 65.600 C 186.400 65.820,186.940 66.000,187.600 66.000 C 188.260 66.000,188.800 66.180,188.800 66.400 C 188.800 66.620,189.340 66.800,190.000 66.800 C 190.660 66.800,191.200 66.980,191.200 67.200 C 191.200 67.420,191.560 67.600,192.000 67.600 C 192.440 67.600,192.800 67.780,192.800 68.000 C 192.800 68.220,193.250 68.400,193.800 68.400 C 194.350 68.400,194.800 68.580,194.800 68.800 C 194.800 69.020,195.160 69.200,195.600 69.200 C 196.040 69.200,196.400 69.380,196.400 69.600 C 196.400 69.820,196.760 70.000,197.200 70.000 C 197.640 70.000,198.000 70.180,198.000 70.400 C 198.000 70.620,198.360 70.800,198.800 70.800 C 199.240 70.800,199.600 70.980,199.600 71.200 C 199.600 71.420,199.960 71.600,200.400 71.600 C 200.840 71.600,201.200 71.780,201.200 72.000 C 201.200 72.220,201.560 72.400,202.000 72.400 C 202.440 72.400,202.800 72.568,202.800 72.773 C 202.800 72.978,203.205 73.271,203.700 73.423 C 204.195 73.575,204.922 74.037,205.316 74.450 C 205.709 74.862,206.344 75.200,206.727 75.200 C 207.110 75.200,207.683 75.560,208.000 76.000 C 208.317 76.440,208.719 76.800,208.892 76.800 C 209.065 76.800,209.772 77.340,210.463 78.000 C 211.154 78.660,211.874 79.200,212.063 79.200 C 212.551 79.200,222.400 89.106,222.400 89.596 C 222.400 89.818,222.580 90.000,222.800 90.000 C 223.020 90.000,223.200 90.258,223.200 90.573 C 223.200 90.888,223.560 91.260,224.000 91.400 C 224.440 91.540,224.800 92.000,224.800 92.424 C 224.800 92.847,225.160 93.418,225.600 93.693 C 226.040 93.968,226.400 94.487,226.400 94.847 C 226.400 95.207,226.670 95.726,227.000 96.000 C 227.330 96.274,227.600 96.836,227.600 97.249 C 227.600 97.662,227.768 98.000,227.973 98.000 C 228.178 98.000,228.466 98.379,228.613 98.841 C 228.952 99.909,232.697 103.600,233.441 103.600 C 233.748 103.600,234.000 103.780,234.000 104.000 C 234.000 104.220,234.360 104.400,234.800 104.400 C 235.240 104.400,235.600 104.543,235.600 104.717 C 235.600 105.331,239.250 106.000,242.600 106.000 C 245.950 106.000,249.600 105.331,249.600 104.717 C 249.600 104.543,249.960 104.400,250.400 104.400 C 250.840 104.400,251.200 104.220,251.200 104.000 C 251.200 103.780,251.472 103.600,251.805 103.600 C 252.138 103.600,252.768 103.420,253.205 103.200 C 253.642 102.980,254.358 102.620,254.795 102.400 C 255.232 102.180,255.952 102.000,256.395 102.000 C 256.838 102.000,257.200 101.820,257.200 101.600 C 257.200 101.380,257.819 101.200,258.576 101.200 C 259.333 101.200,260.064 101.020,260.200 100.800 C 260.336 100.580,261.337 100.400,262.424 100.400 C 263.511 100.400,264.400 100.220,264.400 100.000 C 264.400 99.751,266.667 99.600,270.400 99.600 C 274.133 99.600,276.400 99.751,276.400 100.000 C 276.400 100.220,277.199 100.400,278.176 100.400 C 279.153 100.400,280.064 100.580,280.200 100.800 C 280.336 101.020,281.067 101.200,281.824 101.200 C 282.581 101.200,283.200 101.380,283.200 101.600 C 283.200 101.820,283.740 102.000,284.400 102.000 C 285.060 102.000,285.600 102.136,285.600 102.302 C 285.600 102.600,288.125 103.600,289.100 103.688 C 289.375 103.713,289.600 103.883,289.600 104.067 C 289.600 104.250,289.883 104.400,290.229 104.400 C 290.574 104.400,291.129 104.672,291.461 105.004 C 291.793 105.336,292.258 105.488,292.494 105.342 C 292.730 105.196,292.811 105.259,292.673 105.481 C 292.536 105.704,293.228 106.300,294.212 106.806 C 295.195 107.312,296.000 107.865,296.000 108.036 C 296.000 108.207,296.381 108.467,296.846 108.615 C 297.896 108.948,306.000 116.998,306.000 117.707 C 306.000 117.991,306.360 118.483,306.800 118.800 C 307.240 119.117,307.600 119.607,307.600 119.888 C 307.600 120.170,307.780 120.400,308.000 120.400 C 308.220 120.400,308.400 120.670,308.400 121.000 C 308.400 121.330,308.591 121.600,308.824 121.600 C 309.057 121.600,309.156 121.748,309.044 121.928 C 308.933 122.109,309.192 122.833,309.621 123.538 C 310.049 124.243,310.400 125.085,310.400 125.410 C 310.400 125.734,310.580 126.000,310.800 126.000 C 311.020 126.000,311.200 126.345,311.200 126.767 C 311.200 127.188,311.403 127.601,311.650 127.683 C 311.898 127.766,312.100 128.321,312.100 128.917 C 312.100 129.513,312.257 130.000,312.450 130.000 C 312.643 130.000,312.800 130.540,312.800 131.200 C 312.800 131.860,312.980 132.400,313.200 132.400 C 313.420 132.400,313.600 132.994,313.600 133.720 C 313.600 134.446,313.764 135.211,313.965 135.420 C 314.380 135.852,314.743 138.870,315.045 144.400 C 315.160 146.490,315.421 148.371,315.627 148.580 C 315.832 148.789,316.000 149.284,316.000 149.680 C 316.000 150.076,316.180 150.400,316.400 150.400 C 316.620 150.400,316.800 150.828,316.800 151.352 C 316.800 151.921,317.444 152.967,318.400 153.952 C 319.280 154.859,320.000 155.781,320.000 156.000 C 320.000 156.220,320.152 156.400,320.338 156.400 C 320.524 156.400,321.199 156.850,321.838 157.400 C 322.477 157.950,323.585 158.510,324.300 158.644 C 325.015 158.779,325.600 159.049,325.600 159.245 C 325.600 159.440,326.230 159.600,327.000 159.600 C 327.770 159.600,328.400 159.780,328.400 160.000 C 328.400 160.220,329.120 160.400,330.000 160.400 C 330.880 160.400,331.600 160.580,331.600 160.800 C 331.600 161.020,332.151 161.200,332.824 161.200 C 333.537 161.200,333.944 161.367,333.800 161.600 C 333.660 161.827,333.996 162.000,334.576 162.000 C 335.139 162.000,335.600 162.180,335.600 162.400 C 335.600 162.620,335.960 162.800,336.400 162.800 C 336.840 162.800,337.200 162.980,337.200 163.200 C 337.200 163.420,337.560 163.600,338.000 163.600 C 338.440 163.600,338.800 163.780,338.800 164.000 C 338.800 164.220,339.160 164.400,339.600 164.400 C 340.040 164.400,340.400 164.580,340.400 164.800 C 340.400 165.020,340.720 165.200,341.112 165.200 C 341.503 165.200,342.083 165.560,342.400 166.000 C 342.717 166.440,343.207 166.800,343.488 166.800 C 343.770 166.800,344.000 166.950,344.000 167.132 C 344.000 167.315,344.491 167.720,345.092 168.032 C 345.692 168.345,347.675 170.085,349.498 171.900 C 351.320 173.715,352.989 175.200,353.206 175.200 C 353.423 175.200,353.600 175.494,353.600 175.853 C 353.600 176.212,353.916 176.797,354.303 177.153 C 354.689 177.509,355.260 178.295,355.570 178.900 C 355.881 179.505,356.285 180.000,356.468 180.000 C 356.650 180.000,356.800 180.360,356.800 180.800 C 356.800 181.240,356.980 181.600,357.200 181.600 C 357.420 181.600,357.600 181.960,357.600 182.400 C 357.600 182.840,357.752 183.200,357.937 183.200 C 358.122 183.200,358.489 183.920,358.753 184.800 C 359.016 185.680,359.399 186.400,359.604 186.400 C 359.808 186.400,359.878 186.652,359.760 186.960 C 359.642 187.267,359.738 187.638,359.973 187.783 C 360.208 187.928,360.400 188.376,360.400 188.778 C 360.400 189.180,360.656 190.002,360.968 190.604 C 361.281 191.207,361.449 191.929,361.341 192.209 C 361.233 192.490,361.338 192.838,361.573 192.983 C 361.808 193.128,362.000 193.957,362.000 194.824 C 362.000 195.691,362.165 196.400,362.366 196.400 C 362.890 196.400,362.938 209.867,362.415 210.191 C 362.187 210.332,362.000 211.146,362.000 212.000 C 362.000 212.854,361.820 213.664,361.600 213.800 C 361.380 213.936,361.200 214.667,361.200 215.424 C 361.200 216.181,361.020 216.800,360.800 216.800 C 360.580 216.800,360.400 217.340,360.400 218.000 C 360.400 218.660,360.190 219.200,359.933 219.200 C 359.677 219.200,359.579 219.313,359.717 219.451 C 359.855 219.589,359.712 220.196,359.400 220.800 C 359.088 221.404,358.945 222.011,359.083 222.149 C 359.221 222.287,359.123 222.400,358.867 222.400 C 358.610 222.400,358.400 222.760,358.400 223.200 C 358.400 223.640,358.220 224.000,358.000 224.000 C 357.780 224.000,357.600 224.360,357.600 224.800 C 357.600 225.240,357.420 225.600,357.200 225.600 C 356.980 225.600,356.800 225.842,356.800 226.138 C 356.800 226.434,356.440 227.002,356.000 227.400 C 355.560 227.798,355.200 228.300,355.200 228.515 C 355.200 228.730,354.876 229.197,354.481 229.553 C 354.086 229.909,353.326 230.830,352.794 231.600 C 351.617 233.302,346.860 238.000,346.314 238.000 C 346.098 238.000,345.417 238.540,344.800 239.200 C 344.183 239.860,343.481 240.400,343.240 240.400 C 342.998 240.400,342.800 240.559,342.800 240.753 C 342.800 241.123,338.819 243.200,338.109 243.200 C 337.883 243.200,337.476 243.468,337.204 243.796 C 336.932 244.123,336.530 244.280,336.310 244.144 C 336.090 244.009,335.796 244.056,335.655 244.249 C 335.319 244.711,331.772 246.032,330.000 246.355 C 328.473 246.633,327.757 249.796,328.770 251.782 C 329.092 252.414,329.542 260.095,329.531 264.800 C 329.520 270.156,329.063 277.883,328.734 278.279 C 327.906 279.278,328.683 280.000,330.587 280.000 C 331.584 280.000,332.400 279.820,332.400 279.600 C 332.400 279.380,333.300 279.200,334.400 279.200 C 335.500 279.200,336.400 279.020,336.400 278.800 C 336.400 278.580,337.120 278.400,338.000 278.400 C 338.880 278.400,339.600 278.220,339.600 278.000 C 339.600 277.780,340.039 277.600,340.576 277.600 C 341.113 277.600,341.664 277.420,341.800 277.200 C 341.936 276.980,342.566 276.800,343.200 276.800 C 343.834 276.800,344.464 276.620,344.600 276.400 C 344.736 276.180,345.197 276.000,345.624 276.000 C 346.051 276.000,346.400 275.820,346.400 275.600 C 346.400 275.380,346.895 275.199,347.500 275.197 C 348.517 275.194,355.752 271.835,357.036 270.770 C 357.346 270.513,357.600 270.442,357.600 270.612 C 357.600 270.783,357.936 270.535,358.347 270.061 C 358.758 269.588,359.348 269.200,359.659 269.200 C 359.969 269.200,360.476 268.850,360.785 268.421 C 361.093 267.993,361.475 267.723,361.632 267.820 C 361.790 267.917,362.495 267.458,363.200 266.800 C 363.905 266.142,364.671 265.720,364.902 265.863 C 365.149 266.016,365.205 265.932,365.038 265.662 C 364.881 265.408,364.961 265.200,365.216 265.200 C 365.471 265.200,366.183 264.660,366.800 264.000 C 367.417 263.340,368.115 262.800,368.351 262.800 C 368.925 262.800,377.600 254.212,377.600 253.644 C 377.600 253.400,377.780 253.200,378.000 253.200 C 378.220 253.200,378.400 253.002,378.400 252.760 C 378.400 252.519,378.940 251.817,379.600 251.200 C 380.260 250.583,380.800 249.880,380.800 249.636 C 380.800 249.392,381.340 248.628,382.000 247.937 C 382.660 247.246,383.200 246.438,383.200 246.141 C 383.200 245.843,383.380 245.600,383.600 245.600 C 383.820 245.600,384.000 245.364,384.000 245.075 C 384.000 244.787,384.360 244.164,384.800 243.692 C 385.240 243.220,385.600 242.556,385.600 242.217 C 385.600 241.878,385.746 241.600,385.925 241.600 C 386.104 241.600,386.498 240.970,386.800 240.200 C 387.102 239.430,387.496 238.800,387.675 238.800 C 387.854 238.800,388.000 238.440,388.000 238.000 C 388.000 237.560,388.180 237.200,388.400 237.200 C 388.620 237.200,388.800 236.840,388.800 236.400 C 388.800 235.960,388.980 235.600,389.200 235.600 C 389.420 235.600,389.600 235.251,389.600 234.824 C 389.600 234.397,389.780 233.936,390.000 233.800 C 390.220 233.664,390.400 233.113,390.400 232.576 C 390.400 232.039,390.599 231.600,390.843 231.600 C 391.086 231.600,391.184 231.336,391.060 231.013 C 390.936 230.690,391.007 230.319,391.217 230.189 C 391.428 230.059,391.600 229.423,391.600 228.776 C 391.600 228.129,391.780 227.600,392.000 227.600 C 392.220 227.600,392.400 227.060,392.400 226.400 C 392.400 225.740,392.542 225.200,392.715 225.200 C 392.888 225.200,393.074 224.618,393.128 223.907 C 393.183 223.195,393.401 222.439,393.613 222.227 C 393.826 222.014,394.000 221.066,394.000 220.120 C 394.000 219.174,394.180 218.400,394.400 218.400 C 394.629 218.400,394.800 217.200,394.800 215.600 C 394.800 214.000,394.971 212.800,395.200 212.800 C 395.455 212.800,395.600 209.475,395.600 203.624 C 395.600 197.937,395.448 194.353,395.200 194.200 C 394.980 194.064,394.800 192.793,394.800 191.376 C 394.800 189.925,394.625 188.800,394.400 188.800 C 394.180 188.800,394.000 187.900,394.000 186.800 C 394.000 185.700,393.820 184.800,393.600 184.800 C 393.380 184.800,393.200 184.181,393.200 183.424 C 393.200 182.667,393.020 181.936,392.800 181.800 C 392.580 181.664,392.400 181.023,392.400 180.376 C 392.400 179.729,392.220 179.200,392.000 179.200 C 391.780 179.200,391.600 178.894,391.600 178.520 C 391.600 177.438,390.255 173.200,389.911 173.200 C 389.740 173.200,389.600 172.840,389.600 172.400 C 389.600 171.960,389.420 171.600,389.200 171.600 C 388.980 171.600,388.800 171.245,388.800 170.811 C 388.800 170.377,388.342 169.252,387.782 168.311 C 387.223 167.370,386.662 166.285,386.536 165.900 C 386.410 165.515,386.148 165.200,385.953 165.200 C 385.759 165.200,385.600 164.840,385.600 164.400 C 385.600 163.960,385.464 163.600,385.298 163.600 C 385.131 163.600,384.756 163.059,384.463 162.398 C 384.170 161.736,383.766 161.297,383.565 161.421 C 383.364 161.546,383.200 161.304,383.200 160.886 C 383.200 160.467,382.840 159.798,382.400 159.400 C 381.960 159.002,381.600 158.506,381.600 158.298 C 381.600 158.091,381.060 157.417,380.400 156.800 C 379.740 156.183,379.200 155.478,379.200 155.232 C 379.200 154.384,368.372 143.412,366.670 142.536 C 365.972 142.176,365.109 141.548,364.753 141.141 C 364.397 140.733,363.852 140.400,363.541 140.400 C 363.231 140.400,362.717 140.040,362.400 139.600 C 362.083 139.160,361.569 138.800,361.259 138.800 C 360.948 138.800,360.403 138.471,360.047 138.070 C 359.691 137.668,358.815 137.084,358.100 136.772 C 357.385 136.460,356.800 136.069,356.800 135.902 C 356.800 135.736,356.440 135.600,356.000 135.600 C 355.560 135.600,355.200 135.420,355.200 135.200 C 355.200 134.980,354.840 134.800,354.400 134.800 C 353.960 134.800,353.600 134.620,353.600 134.400 C 353.600 134.180,353.240 134.000,352.800 134.000 C 352.360 134.000,352.000 133.820,352.000 133.600 C 352.000 133.380,351.640 133.200,351.200 133.200 C 350.760 133.200,350.400 133.020,350.400 132.800 C 350.400 132.580,350.040 132.400,349.600 132.400 C 349.160 132.400,348.800 132.232,348.800 132.027 C 348.800 131.821,348.305 131.596,347.700 131.527 C 346.704 131.412,346.588 131.230,346.475 129.600 C 346.406 128.610,346.181 127.629,345.975 127.420 C 345.769 127.211,345.600 126.356,345.600 125.520 C 345.600 124.684,345.420 124.000,345.200 124.000 C 344.980 124.000,344.800 123.460,344.800 122.800 C 344.800 122.140,344.620 121.600,344.400 121.600 C 344.180 121.600,344.000 121.060,344.000 120.400 C 344.000 119.740,343.820 119.200,343.600 119.200 C 343.380 119.200,343.200 118.660,343.200 118.000 C 343.200 117.340,343.020 116.800,342.800 116.800 C 342.580 116.800,342.400 116.260,342.400 115.600 C 342.400 114.940,342.220 114.400,342.000 114.400 C 341.780 114.400,341.600 114.103,341.600 113.740 C 341.600 112.963,339.572 108.661,339.115 108.467 C 338.942 108.393,338.800 107.988,338.800 107.567 C 338.800 107.145,338.620 106.800,338.400 106.800 C 338.180 106.800,338.000 106.440,338.000 106.000 C 338.000 105.560,337.820 105.200,337.600 105.200 C 337.380 105.200,337.200 104.964,337.200 104.675 C 337.200 104.387,336.840 103.764,336.400 103.292 C 335.960 102.820,335.600 102.196,335.600 101.905 C 335.600 101.614,335.240 101.117,334.800 100.800 C 334.360 100.483,334.000 100.020,334.000 99.771 C 334.000 99.522,333.460 98.754,332.800 98.063 C 332.140 97.372,331.600 96.654,331.600 96.466 C 331.600 95.873,327.289 91.646,326.973 91.929 C 326.807 92.078,326.793 91.989,326.940 91.731 C 327.184 91.306,323.614 87.200,323.000 87.200 C 322.861 87.200,321.871 86.300,320.800 85.200 C 319.729 84.100,318.687 83.200,318.485 83.200 C 318.284 83.200,317.554 82.660,316.863 82.000 C 316.172 81.340,315.375 80.800,315.092 80.800 C 314.809 80.800,314.317 80.440,314.000 80.000 C 313.683 79.560,313.143 79.200,312.800 79.200 C 312.457 79.200,311.917 78.840,311.600 78.400 C 311.283 77.960,310.703 77.600,310.312 77.600 C 309.920 77.600,309.597 77.465,309.593 77.300 C 309.590 77.135,308.465 76.460,307.093 75.800 C 305.722 75.140,304.540 74.465,304.467 74.300 C 304.393 74.135,303.798 74.000,303.143 74.000 C 302.451 74.000,302.056 73.832,302.200 73.600 C 302.340 73.373,302.004 73.200,301.424 73.200 C 300.861 73.200,300.400 73.020,300.400 72.800 C 300.400 72.580,300.040 72.400,299.600 72.400 C 299.160 72.400,298.800 72.220,298.800 72.000 C 298.800 71.780,298.260 71.600,297.600 71.600 C 296.940 71.600,296.400 71.420,296.400 71.200 C 296.400 70.980,295.860 70.800,295.200 70.800 C 294.540 70.800,294.000 70.620,294.000 70.400 C 294.000 70.180,293.460 70.000,292.800 70.000 C 292.140 70.000,291.600 69.820,291.600 69.600 C 291.600 69.380,290.981 69.200,290.224 69.200 C 289.467 69.200,288.736 69.020,288.600 68.800 C 288.464 68.580,287.553 68.400,286.576 68.400 C 285.599 68.400,284.800 68.220,284.800 68.000 C 284.800 67.771,283.600 67.600,282.000 67.600 C 280.400 67.600,279.200 67.429,279.200 67.200 C 279.200 66.946,276.067 66.800,270.600 66.800 C 265.133 66.800,262.000 66.946,262.000 67.200 C 262.000 67.428,260.808 67.600,259.224 67.600 C 257.697 67.600,256.336 67.780,256.200 68.000 C 256.064 68.220,255.164 68.400,254.200 68.400 C 253.236 68.400,252.336 68.580,252.200 68.800 C 252.064 69.020,251.434 69.200,250.800 69.200 C 250.166 69.200,249.535 69.381,249.398 69.603 C 249.118 70.056,248.000 69.125,248.000 68.438 C 248.000 67.732,234.533 54.400,233.820 54.400 C 233.453 54.400,233.264 54.220,233.400 54.000 C 233.536 53.780,233.439 53.600,233.184 53.600 C 232.929 53.600,232.217 53.060,231.600 52.400 C 230.983 51.740,230.263 51.200,230.000 51.200 C 229.737 51.200,229.017 50.660,228.400 50.000 C 227.783 49.340,227.031 48.800,226.728 48.800 C 226.425 48.800,225.917 48.440,225.600 48.000 C 225.283 47.560,224.871 47.200,224.684 47.200 C 224.497 47.200,223.547 46.651,222.572 45.981 C 221.597 45.310,220.794 44.905,220.787 45.081 C 220.780 45.256,220.555 45.130,220.287 44.800 C 219.651 44.016,215.876 42.000,215.046 42.000 C 214.691 42.000,214.400 41.820,214.400 41.600 C 214.400 41.380,214.040 41.200,213.600 41.200 C 213.160 41.200,212.800 41.020,212.800 40.800 C 212.800 40.580,212.440 40.400,212.000 40.400 C 211.560 40.400,211.200 40.220,211.200 40.000 C 211.200 39.780,210.840 39.600,210.400 39.600 C 209.960 39.600,209.600 39.420,209.600 39.200 C 209.600 38.980,209.150 38.800,208.600 38.800 C 208.050 38.800,207.600 38.620,207.600 38.400 C 207.600 38.180,207.328 38.000,206.995 38.000 C 206.662 38.000,205.987 37.792,205.495 37.538 C 203.618 36.567,203.193 36.400,202.605 36.400 C 202.272 36.400,202.000 36.220,202.000 36.000 C 202.000 35.780,201.460 35.600,200.800 35.600 C 200.140 35.600,199.600 35.420,199.600 35.200 C 199.600 34.980,199.060 34.800,198.400 34.800 C 197.740 34.800,197.200 34.620,197.200 34.400 C 197.200 34.180,196.581 34.000,195.824 34.000 C 195.067 34.000,194.336 33.820,194.200 33.600 C 194.064 33.380,193.423 33.200,192.776 33.200 C 192.129 33.200,191.600 33.020,191.600 32.800 C 191.600 32.580,190.891 32.400,190.024 32.400 C 189.157 32.400,188.336 32.220,188.200 32.000 C 188.064 31.780,187.254 31.600,186.400 31.600 C 185.546 31.600,184.736 31.420,184.600 31.200 C 184.464 30.980,183.373 30.800,182.176 30.800 C 180.979 30.800,180.000 30.620,180.000 30.400 C 180.000 30.167,178.667 30.000,176.800 30.000 C 174.933 30.000,173.600 29.833,173.600 29.600 C 173.600 29.067,150.824 29.067,150.000 29.600 "
            stroke="none" fill="#3c4454" fill-rule="evenodd"></path>
        <path id="path2" d="" stroke="none" fill="#3480a4" fill-rule="evenodd"></path>
        <path id="path3" d="" stroke="none" fill="#34646c" fill-rule="evenodd"></path>
        <path id="path4" d="" stroke="none" fill="#344470" fill-rule="evenodd"></path>
    </g>
</svg>