<svg width="24" height="24" viewBox="0 0 24 24" fill="none" xmlns="http://www.w3.org/2000/svg">
  <path
    fill-rule="evenodd"
    clip-rule="evenodd"
    d="M2.5 7.75C2.5 5.95507 3.95507 4.5 5.75 4.5C7.54493 4.5 9 5.95507 9 7.75C9 9.54493 7.54493 11 5.75 11C3.95507 11 2.5 9.54493 2.5 7.75ZM5.75 3C3.12665 3 1 5.12665 1 7.75C1 10.3734 3.12665 12.5 5.75 12.5C8.11815 12.5 10.0815 10.767 10.4411 8.5H13.0227C13.1608 8.5 13.2727 8.61193 13.2727 8.75V15.75C13.2727 16.7165 14.0562 17.5 15.0227 17.5H17.75V19.7277C17.75 20.1438 18.2285 20.3778 18.557 20.1224L22.1839 17.3014C22.4585 17.0878 22.4365 16.666 22.1411 16.4822L18.5142 14.2255C18.1811 14.0182 17.75 14.2577 17.75 14.65V16H15.0227C14.8847 16 14.7727 15.8881 14.7727 15.75V8.75C14.7727 7.7835 13.9892 7 13.0227 7H10.4411C10.0815 4.73301 8.11815 3 5.75 3ZM5.75 9.75C6.85457 9.75 7.75 8.85457 7.75 7.75C7.75 6.64543 6.85457 5.75 5.75 5.75C4.64543 5.75 3.75 6.64543 3.75 7.75C3.75 8.85457 4.64543 9.75 5.75 9.75Z"
    fill="currentColor"
  />
</svg>
