<?xml version="1.0" encoding="utf-8"?>
<!-- Generator: Adobe Illustrator 26.3.1, SVG Export Plug-In . SVG Version: 6.00 Build 0)  -->
<svg version="1.1" id="圖層_1" xmlns="http://www.w3.org/2000/svg" xmlns:xlink="http://www.w3.org/1999/xlink" x="0px" y="0px"
	 viewBox="0 0 277 468" style="enable-background:new 0 0 277 468;" xml:space="preserve">
<style type="text/css">
	.st0{fill:#1A84F9;}
	.st1{fill:none;stroke:#F2F8FE;}
	.st2{clip-path:url(#SVGID_00000044868181664209366930000013793851771477255562_);}
	.st3{fill:#F8E28A;}
	.st4{clip-path:url(#SVGID_00000181781738076459440410000004952388482752367509_);}
	.st5{fill:#F2F8FE;}
	.st6{clip-path:url(#SVGID_00000091730699429535258250000000614515549309319074_);}
	.st7{fill:#00C2FF;}
	.st8{clip-path:url(#SVGID_00000074428897893898306140000013509182319811921283_);}
	.st9{clip-path:url(#SVGID_00000011012324582096570160000018243095747276912828_);}
	.st10{fill:#C0F38D;}
	.st11{clip-path:url(#SVGID_00000075155054299126027080000001230005923761578154_);}
	.st12{fill:#FFFFFF;}
	.st13{clip-path:url(#SVGID_00000152983615932104615560000012369018576223754145_);}
	.st14{clip-path:url(#SVGID_00000142878281191906146020000012129067566346760340_);}
	.st15{clip-path:url(#SVGID_00000180364388412998079750000002665850954801499834_);}
	.st16{fill:#B3C7DC;}
</style>
<g id="组_278" transform="translate(-349 -253)">
	<g id="版面模組橫01" transform="translate(349 409)">
		<g id="矩形_97">
			<rect class="st0" width="277" height="156"/>
			<rect x="0.5" y="0.5" class="st1" width="276" height="155"/>
		</g>
	</g>
	<g id="版面模組橫01-2" transform="translate(349 253)">
		<g id="矩形_97-2">
			<rect class="st0" width="277" height="156"/>
			<rect x="0.5" y="0.5" class="st1" width="276" height="155"/>
		</g>
	</g>
	<g id="版面模組橫01-3" transform="translate(349 565)">
		<g id="矩形_97-3">
			<rect class="st0" width="277" height="156"/>
			<rect x="0.5" y="0.5" class="st1" width="276" height="155"/>
		</g>
	</g>
	<g id="组_252" transform="translate(353 -17)">
		<g id="组_87" transform="translate(114.657 312)">
			<g>
				<defs>
					<rect id="SVGID_1_" x="0.3" width="38" height="37"/>
				</defs>
				<clipPath id="SVGID_00000145020083746575969080000000374042372584984233_">
					<use xlink:href="#SVGID_1_"  style="overflow:visible;"/>
				</clipPath>
				<g id="组_86" transform="translate(0)" style="clip-path:url(#SVGID_00000145020083746575969080000000374042372584984233_);">
					<path id="路径_9" class="st3" d="M17.4,5.1V1.7c0-0.9,0.8-1.7,1.7-1.7c0.9,0,1.6,0.8,1.7,1.7v3.4c0,0.9-0.8,1.7-1.7,1.7
						C18.1,6.8,17.4,6,17.4,5.1 M29.9,10.3l2.4-2.4C33,7.3,33,6.2,32.4,5.5c-0.6-0.7-1.7-0.7-2.4-0.1c0,0-0.1,0-0.1,0.1l-2.4,2.4
						c-0.7,0.7-0.7,1.7,0,2.4S29.3,11,29.9,10.3 M36.1,17.1h-3.4c-0.9,0-1.7,0.8-1.7,1.7c0,0.9,0.8,1.6,1.7,1.7h3.4
						c0.9,0,1.7-0.7,1.7-1.7C37.9,17.9,37.2,17.1,36.1,17.1C36.2,17.1,36.2,17.1,36.1,17.1 M19.1,30.7c-0.9,0-1.7,0.8-1.7,1.7v3.4
						c0,0.9,0.7,1.7,1.7,1.7c0.9,0,1.7-0.7,1.7-1.7c0,0,0-0.1,0-0.1v-3.4C20.8,31.5,20,30.7,19.1,30.7 M8.2,10.3L5.8,7.9
						C5.1,7.2,5.2,6.2,5.9,5.5c0.7-0.6,1.7-0.6,2.3,0l2.4,2.4c0.7,0.6,0.8,1.7,0.2,2.4c-0.6,0.7-1.7,0.8-2.4,0.2
						C8.3,10.4,8.3,10.4,8.2,10.3 M27.5,27.2c-0.7,0.7-0.7,1.7,0,2.4c0,0,0,0,0,0l2.4,2.4c0.7,0.7,1.7,0.7,2.4,0
						c0.7-0.7,0.7-1.7,0-2.4l0,0l-2.4-2.4C29.3,26.6,28.2,26.6,27.5,27.2C27.5,27.2,27.5,27.2,27.5,27.2 M2,20.5h3.4
						c0.9,0,1.7-0.8,1.7-1.7c0-0.9-0.8-1.6-1.7-1.7H2c-0.9,0-1.7,0.8-1.7,1.7C0.4,19.7,1.1,20.5,2,20.5 M8.2,32l2.4-2.4
						c0.7-0.7,0.7-1.7,0-2.4s-1.7-0.7-2.4,0l-2.4,2.4c-0.7,0.7-0.7,1.7,0,2.4S7.5,32.7,8.2,32L8.2,32 M19.1,8.5
						c-5.7,0-10.2,4.6-10.2,10.2S13.4,29,19.1,29c5.7,0,10.2-4.6,10.2-10.2C29.3,13.1,24.7,8.5,19.1,8.5"/>
				</g>
			</g>
		</g>
		<g id="组_97" transform="translate(148.657 336.286)">
			<g>
				<defs>
					<rect id="SVGID_00000126306474001084099350000007167600835838303627_" x="0.3" y="-0.3" width="17" height="34"/>
				</defs>
				<clipPath id="SVGID_00000132066220004367462080000000029772272214696366_">
					<use xlink:href="#SVGID_00000126306474001084099350000007167600835838303627_"  style="overflow:visible;"/>
				</clipPath>
				
					<g id="组_96" transform="translate(0 0)" style="clip-path:url(#SVGID_00000132066220004367462080000000029772272214696366_);">
					<path id="路径_14" class="st5" d="M14.1,18.4V4.7c0-2.8-2.2-5.2-5-5.2s-5.2,2.2-5.2,5c0,0,0,0.1,0,0.1v13.7
						c-3.8,2.8-4.5,8.2-1.7,11.9s8.2,4.5,11.9,1.7c3.8-2.8,4.5-8.2,1.7-11.9C15.3,19.4,14.7,18.9,14.1,18.4 M7.2,4.7
						C7.2,3.8,8,3,8.9,3s1.7,0.7,1.7,1.7c0,0,0,0.1,0,0.1H9v1.7h1.7v3.4H9v1.7h1.7V15H7.2V4.7z"/>
				</g>
			</g>
		</g>
		<g id="组_99" transform="translate(103 353.771)">
			<g>
				<defs>
					<rect id="SVGID_00000084492109987514358470000008666712875715324599_" y="0.2" width="42" height="26"/>
				</defs>
				<clipPath id="SVGID_00000054982094998129141870000011044803528258481841_">
					<use xlink:href="#SVGID_00000084492109987514358470000008666712875715324599_"  style="overflow:visible;"/>
				</clipPath>
				
					<g id="组_98" transform="translate(0 0)" style="clip-path:url(#SVGID_00000054982094998129141870000011044803528258481841_);">
					<path id="路径_15" class="st7" d="M33,9.5C31.7,2.6,24.9-1.9,18-0.6c-3.8,0.8-7.1,3.2-8.9,6.7c-5.6,0.6-9.7,5.7-9,11.3
						c0.6,5.2,4.9,9.1,10.1,9.1h22.2c4.7,0,8.5-3.7,8.6-8.4C41.1,13.5,37.5,9.8,33,9.5 M32.4,23.1H10.2c-3.8,0-6.8-3.1-6.8-6.8
						s3.1-6.8,6.8-6.8c0,0,0,0,0,0h1.2c1.4-5,6.6-7.9,11.6-6.5c4,1.1,6.8,4.8,6.8,9v0.9h2.6c2.8,0,5.2,2.2,5.2,5s-2.2,5.2-5,5.2
						C32.5,23.1,32.5,23.1,32.4,23.1"/>
				</g>
			</g>
		</g>
	</g>
	<g id="组_257" transform="translate(216 145)">
		<g id="组_91" transform="translate(256.123 315)">
			<g>
				<defs>
					<rect id="SVGID_00000170966185486345072880000005068042615564786363_" x="-0.1" width="29" height="24"/>
				</defs>
				<clipPath id="SVGID_00000083794311265457915300000018155183134451571132_">
					<use xlink:href="#SVGID_00000170966185486345072880000005068042615564786363_"  style="overflow:visible;"/>
				</clipPath>
				<g id="组_90" transform="translate(0)" style="clip-path:url(#SVGID_00000083794311265457915300000018155183134451571132_);">
					<path id="路径_11" class="st7" d="M23.1,0L26,5.9h-4.4L18.7,0h-2.9l2.9,5.9h-4.4L11.3,0H8.4l2.9,5.9H6.9L4,0H2.5
						C0.9,0-0.4,1.3-0.4,2.9l0,17.6c0,1.6,1.3,2.9,2.9,2.9H26c1.6,0,2.9-1.3,2.9-2.9V0H23.1z"/>
				</g>
			</g>
		</g>
		<g id="组_93" transform="translate(241 344.167)">
			<g>
				<defs>
					<rect id="SVGID_00000133499727116857126430000005591264160980055943_" y="-0.2" width="29" height="29"/>
				</defs>
				<clipPath id="SVGID_00000033329139029371859940000016838094882050369924_">
					<use xlink:href="#SVGID_00000133499727116857126430000005591264160980055943_"  style="overflow:visible;"/>
				</clipPath>
				
					<g id="组_92" transform="translate(0 0)" style="clip-path:url(#SVGID_00000033329139029371859940000016838094882050369924_);">
					<path id="路径_12" class="st10" d="M29.4,20.8V3.2c0-1.6-1.3-2.9-2.9-2.9H8.8c-1.6,0-2.9,1.3-2.9,2.9v17.6
						c0,1.6,1.3,2.9,2.9,2.9h17.6C28.1,23.8,29.4,22.4,29.4,20.8 M13.2,14.9l3,4l4.4-5.5l5.9,7.4H8.8L13.2,14.9z M0,6.1v20.6
						c0,1.6,1.3,2.9,2.9,2.9h20.6v-2.9H2.9V6.1H0z"/>
				</g>
			</g>
		</g>
		<g id="组_101" transform="translate(276.648 347.407)">
			<g>
				<defs>
					<rect id="SVGID_00000033353955801970486290000001551447507714668733_" x="0.4" y="-0.4" width="17" height="26"/>
				</defs>
				<clipPath id="SVGID_00000100373339549358091060000000896669818544953770_">
					<use xlink:href="#SVGID_00000033353955801970486290000001551447507714668733_"  style="overflow:visible;"/>
				</clipPath>
				
					<g id="组_100" transform="translate(0 0)" style="clip-path:url(#SVGID_00000100373339549358091060000000896669818544953770_);">
					<path id="路径_16" class="st12" d="M8.5-0.1v15.5c-2.8-1.6-6.4-0.6-8,2.2s-0.6,6.4,2.2,8c2.8,1.6,6.4,0.6,8-2.2
						c0.5-0.9,0.8-1.9,0.8-2.9V5.8h5.9v-5.9H8.5z"/>
				</g>
			</g>
		</g>
	</g>
	<g id="组_264" transform="translate(315 -23.207)">
		<g id="组_89" transform="translate(151.741 634.429)">
			<g>
				<defs>
					<rect id="SVGID_00000055680493773066223690000003950668372387348120_" x="0.3" y="-0.2" width="28" height="27"/>
				</defs>
				<clipPath id="SVGID_00000065055368847130757930000001647747291529633470_">
					<use xlink:href="#SVGID_00000055680493773066223690000003950668372387348120_"  style="overflow:visible;"/>
				</clipPath>
				
					<g id="组_88" transform="translate(0 0)" style="clip-path:url(#SVGID_00000065055368847130757930000001647747291529633470_);">
					<path id="路径_10" class="st7" d="M14.1-0.5C6.5-0.5,0.3,5.7,0.3,13.4s6.2,13.8,13.8,13.8S27.9,21,27.9,13.4
						C27.9,5.7,21.7-0.5,14.1-0.5 M12.7,24.3c-5.5-0.7-9.7-5.4-9.7-11c0-0.8,0.1-1.7,0.3-2.5l6.6,6.6v1.4c0,1.5,1.2,2.8,2.8,2.8
						V24.3z M22.3,20.8c-0.4-1.1-1.4-1.9-2.6-1.9h-1.4v-4.1c0-0.8-0.6-1.4-1.4-1.4H8.6v-2.8h2.8c0.8,0,1.4-0.6,1.4-1.4V6.4h2.8
						c1.5,0,2.8-1.2,2.8-2.8V3.1c5.6,2.3,8.4,8.7,6.1,14.3C23.9,18.7,23.2,19.8,22.3,20.8"/>
				</g>
			</g>
		</g>
		<g id="组_106" transform="translate(141 666.651)">
			<g>
				<defs>
					<rect id="SVGID_00000129920568579574166090000016847202354314668205_" y="-0.4" width="28" height="23"/>
				</defs>
				<clipPath id="SVGID_00000082341689576833369080000013589920227318515602_">
					<use xlink:href="#SVGID_00000129920568579574166090000016847202354314668205_"  style="overflow:visible;"/>
				</clipPath>
				
					<g id="组_105" transform="translate(0 0)" style="clip-path:url(#SVGID_00000082341689576833369080000013589920227318515602_);">
					<path id="路径_17" class="st5" d="M24.9,0.5H2.8C1.2,0.5,0,1.7,0,3.2l0,16.6c0,1.5,1.2,2.8,2.8,2.8h22.1
						c1.5,0,2.8-1.2,2.8-2.8V3.2C27.6,1.7,26.4,0.5,24.9,0.5 M18,19.8H2.8v-5.5H18L18,19.8z M18,12.9H2.8V7.4H18L18,12.9z
						 M24.9,19.8h-5.5V7.4h5.5V19.8z"/>
				</g>
			</g>
		</g>
		<g id="组_108" transform="translate(174.296 664.503)">
			<g>
				<defs>
					<rect id="SVGID_00000137829199550332690010000005429310140343168164_" x="-0.3" y="-0.3" width="25" height="25"/>
				</defs>
				<clipPath id="SVGID_00000100355863290841359060000014345491482944907183_">
					<use xlink:href="#SVGID_00000137829199550332690010000005429310140343168164_"  style="overflow:visible;"/>
				</clipPath>
				
					<g id="组_107" transform="translate(0 0)" style="clip-path:url(#SVGID_00000100355863290841359060000014345491482944907183_);">
					<path id="路径_18" class="st16" d="M23.3,13.7H1.2c-0.8,0-1.4,0.6-1.4,1.4v8.3c0,0.8,0.6,1.4,1.4,1.4h22.1
						c0.8,0,1.4-0.6,1.4-1.4V15C24.7,14.3,24.1,13.7,23.3,13.7 M5.4,21.9c-1.5,0-2.8-1.2-2.8-2.8c0-1.5,1.2-2.8,2.8-2.8
						s2.8,1.2,2.8,2.8c0,0,0,0,0,0C8.1,20.7,6.9,21.9,5.4,21.9 M23.3-0.2H1.2c-0.8,0-1.4,0.6-1.4,1.4v8.3c0,0.8,0.6,1.4,1.4,1.4
						h22.1c0.8,0,1.4-0.6,1.4-1.4V1.2C24.7,0.5,24.1-0.2,23.3-0.2 M5.4,8.1c-1.5,0-2.8-1.2-2.8-2.8s1.2-2.8,2.8-2.8s2.8,1.2,2.8,2.8
						l0,0C8.1,6.9,6.9,8.1,5.4,8.1"/>
				</g>
			</g>
		</g>
	</g>
</g>
</svg>
