<?xml version="1.0" encoding="utf-8"?>
<!-- Generator: Adobe Illustrator 26.3.1, SVG Export Plug-In . SVG Version: 6.00 Build 0)  -->
<svg version="1.1" id="圖層_1" xmlns="http://www.w3.org/2000/svg" xmlns:xlink="http://www.w3.org/1999/xlink" x="0px" y="0px"
	 viewBox="0 0 277 468" style="enable-background:new 0 0 277 468;" xml:space="preserve">
<style type="text/css">
	.st0{fill:#1A84F9;}
	.st1{fill:none;stroke:#F2F8FE;}
	.st2{fill:none;stroke:#FFFFFF;}
	.st3{clip-path:url(#SVGID_00000015332304843598890100000015086054448985083833_);}
	.st4{fill:#F8E28A;}
	.st5{clip-path:url(#SVGID_00000005264301419936861720000012299643238749627275_);}
	.st6{fill:#F2F8FE;}
	.st7{clip-path:url(#SVGID_00000066503019946800657560000014373379907344133787_);}
	.st8{fill:#00C2FF;}
	.st9{clip-path:url(#SVGID_00000054266832416241003800000008342006838144231339_);}
	.st10{clip-path:url(#SVGID_00000110458840295670667450000006388739130054779010_);}
	.st11{fill:#C0F38D;}
	.st12{clip-path:url(#SVGID_00000106827015997011898590000003565013538467011725_);}
	.st13{fill:#FFFFFF;}
	.st14{clip-path:url(#SVGID_00000140006510512995175540000002290261149286505658_);}
	.st15{clip-path:url(#SVGID_00000050650589248025440730000017777838401887632523_);}
	.st16{clip-path:url(#SVGID_00000144336044701248979460000002843363647234002584_);}
	.st17{fill:#B3C7DC;}
	.st18{clip-path:url(#SVGID_00000161632189134231548420000005709892587602960020_);}
</style>
<g id="组_281" transform="translate(-1298 -253)">
	<g id="版面模組橫01" transform="translate(1298 409)">
		<g id="矩形_97">
			<rect class="st0" width="277" height="156"/>
			<rect x="0.5" y="0.5" class="st1" width="276" height="155"/>
		</g>
	</g>
	<g id="版面模組橫01-2" transform="translate(1298 253)">
		<g id="矩形_97-2">
			<rect class="st0" width="277" height="156"/>
			<rect x="0.5" y="0.5" class="st1" width="276" height="155"/>
		</g>
	</g>
	<g id="版面方形模組02" transform="translate(1298 565)">
		<g id="矩形_100">
			<rect class="st0" width="138" height="156"/>
			<rect x="0.5" y="0.5" class="st2" width="137" height="155"/>
		</g>
	</g>
	<g id="版面方形模組02-2" transform="translate(1436 565)">
		<g id="矩形_100-2">
			<rect class="st0" width="139" height="156"/>
			<rect x="0.5" y="0.5" class="st2" width="138" height="155"/>
		</g>
	</g>
	<g id="组_255" transform="translate(1299 -17)">
		<g id="组_87" transform="translate(114.657 312)">
			<g>
				<defs>
					<rect id="SVGID_1_" x="0.3" width="38" height="37"/>
				</defs>
				<clipPath id="SVGID_00000156555576565275814590000003272673127674623617_">
					<use xlink:href="#SVGID_1_"  style="overflow:visible;"/>
				</clipPath>
				<g id="组_86" transform="translate(0)" style="clip-path:url(#SVGID_00000156555576565275814590000003272673127674623617_);">
					<path id="路径_9" class="st4" d="M17.4,5.1V1.7c0-0.9,0.8-1.7,1.7-1.7c0.9,0,1.6,0.8,1.7,1.7v3.4c0,0.9-0.8,1.7-1.7,1.7
						C18.1,6.8,17.4,6,17.4,5.1 M29.9,10.3l2.4-2.4C33,7.3,33,6.2,32.4,5.5c-0.6-0.7-1.7-0.7-2.4-0.1c0,0-0.1,0-0.1,0.1l-2.4,2.4
						c-0.7,0.7-0.7,1.7,0,2.4S29.3,11,29.9,10.3 M36.1,17.1h-3.4c-0.9,0-1.7,0.8-1.7,1.7c0,0.9,0.8,1.6,1.7,1.7h3.4
						c0.9,0,1.7-0.7,1.7-1.7C37.9,17.9,37.2,17.1,36.1,17.1C36.2,17.1,36.2,17.1,36.1,17.1 M19.1,30.7c-0.9,0-1.7,0.8-1.7,1.7v3.4
						c0,0.9,0.7,1.7,1.7,1.7c0.9,0,1.7-0.7,1.7-1.7c0,0,0-0.1,0-0.1v-3.4C20.8,31.5,20,30.7,19.1,30.7 M8.2,10.3L5.8,7.9
						C5.1,7.2,5.2,6.2,5.9,5.5c0.7-0.6,1.7-0.6,2.3,0l2.4,2.4c0.7,0.6,0.8,1.7,0.2,2.4c-0.6,0.7-1.7,0.8-2.4,0.2
						C8.3,10.4,8.3,10.4,8.2,10.3 M27.5,27.2c-0.7,0.7-0.7,1.7,0,2.4c0,0,0,0,0,0l2.4,2.4c0.7,0.7,1.7,0.7,2.4,0
						c0.7-0.7,0.7-1.7,0-2.4l0,0l-2.4-2.4C29.3,26.6,28.2,26.6,27.5,27.2C27.5,27.2,27.5,27.2,27.5,27.2 M2,20.5h3.4
						c0.9,0,1.7-0.8,1.7-1.7c0-0.9-0.8-1.6-1.7-1.7H2c-0.9,0-1.7,0.8-1.7,1.7C0.4,19.7,1.1,20.5,2,20.5 M8.2,32l2.4-2.4
						c0.7-0.7,0.7-1.7,0-2.4s-1.7-0.7-2.4,0l-2.4,2.4c-0.7,0.7-0.7,1.7,0,2.4S7.5,32.7,8.2,32L8.2,32 M19.1,8.5
						c-5.7,0-10.2,4.6-10.2,10.2S13.4,29,19.1,29c5.7,0,10.2-4.6,10.2-10.2C29.3,13.1,24.7,8.5,19.1,8.5"/>
				</g>
			</g>
		</g>
		<g id="组_97" transform="translate(148.657 336.286)">
			<g>
				<defs>
					<rect id="SVGID_00000078764517389100625530000015471297627158584202_" x="0.3" y="-0.3" width="17" height="34"/>
				</defs>
				<clipPath id="SVGID_00000034785408364121114040000014666353476655839929_">
					<use xlink:href="#SVGID_00000078764517389100625530000015471297627158584202_"  style="overflow:visible;"/>
				</clipPath>
				
					<g id="组_96" transform="translate(0 0)" style="clip-path:url(#SVGID_00000034785408364121114040000014666353476655839929_);">
					<path id="路径_14" class="st6" d="M14.1,18.4V4.7c0-2.8-2.2-5.2-5-5.2s-5.2,2.2-5.2,5c0,0,0,0.1,0,0.1v13.7
						c-3.8,2.8-4.5,8.2-1.7,11.9s8.2,4.5,11.9,1.7c3.8-2.8,4.5-8.2,1.7-11.9C15.3,19.4,14.7,18.9,14.1,18.4 M7.2,4.7
						C7.2,3.8,8,3,8.9,3s1.7,0.7,1.7,1.7c0,0,0,0.1,0,0.1H9v1.7h1.7v3.4H9v1.7h1.7V15H7.2V4.7z"/>
				</g>
			</g>
		</g>
		<g id="组_99" transform="translate(103 353.771)">
			<g>
				<defs>
					<rect id="SVGID_00000087379276253982589070000013358151875507618190_" y="0.2" width="42" height="26"/>
				</defs>
				<clipPath id="SVGID_00000060006520597284621050000003291080247557469320_">
					<use xlink:href="#SVGID_00000087379276253982589070000013358151875507618190_"  style="overflow:visible;"/>
				</clipPath>
				
					<g id="组_98" transform="translate(0 0)" style="clip-path:url(#SVGID_00000060006520597284621050000003291080247557469320_);">
					<path id="路径_15" class="st8" d="M33,9.5C31.7,2.6,24.9-1.9,18-0.6c-3.8,0.8-7.1,3.2-8.9,6.7c-5.6,0.6-9.7,5.7-9,11.3
						c0.6,5.2,4.9,9.1,10.1,9.1h22.2c4.7,0,8.5-3.7,8.6-8.4C41.1,13.5,37.5,9.8,33,9.5 M32.4,23.1H10.2c-3.8,0-6.8-3.1-6.8-6.8
						s3.1-6.8,6.8-6.8c0,0,0,0,0,0h1.2c1.4-5,6.6-7.9,11.6-6.5c4,1.1,6.8,4.8,6.8,9v0.9h2.6c2.8,0,5.2,2.2,5.2,5s-2.2,5.2-5,5.2
						C32.5,23.1,32.5,23.1,32.4,23.1"/>
				</g>
			</g>
		</g>
	</g>
	<g id="组_263" transform="translate(1170 145)">
		<g id="组_91" transform="translate(256.123 315)">
			<g>
				<defs>
					<rect id="SVGID_00000099658555713070927350000014781124070507851449_" x="-0.1" width="29" height="24"/>
				</defs>
				<clipPath id="SVGID_00000007405209048033644720000005904068442553669541_">
					<use xlink:href="#SVGID_00000099658555713070927350000014781124070507851449_"  style="overflow:visible;"/>
				</clipPath>
				<g id="组_90" transform="translate(0)" style="clip-path:url(#SVGID_00000007405209048033644720000005904068442553669541_);">
					<path id="路径_11" class="st8" d="M23.1,0L26,5.9h-4.4L18.7,0h-2.9l2.9,5.9h-4.4L11.3,0H8.4l2.9,5.9H6.9L4,0H2.5
						C0.9,0-0.4,1.3-0.4,2.9l0,17.6c0,1.6,1.3,2.9,2.9,2.9H26c1.6,0,2.9-1.3,2.9-2.9V0H23.1z"/>
				</g>
			</g>
		</g>
		<g id="组_93" transform="translate(241 344.167)">
			<g>
				<defs>
					<rect id="SVGID_00000131329382445946408380000008179734362791259582_" y="-0.2" width="29" height="29"/>
				</defs>
				<clipPath id="SVGID_00000127736658246202661650000006828632934669717941_">
					<use xlink:href="#SVGID_00000131329382445946408380000008179734362791259582_"  style="overflow:visible;"/>
				</clipPath>
				
					<g id="组_92" transform="translate(0 0)" style="clip-path:url(#SVGID_00000127736658246202661650000006828632934669717941_);">
					<path id="路径_12" class="st11" d="M29.4,20.8V3.2c0-1.6-1.3-2.9-2.9-2.9H8.8c-1.6,0-2.9,1.3-2.9,2.9v17.6
						c0,1.6,1.3,2.9,2.9,2.9h17.6C28.1,23.8,29.4,22.4,29.4,20.8 M13.2,14.9l3,4l4.4-5.5l5.9,7.4H8.8L13.2,14.9z M0,6.1v20.6
						c0,1.6,1.3,2.9,2.9,2.9h20.6v-2.9H2.9V6.1H0z"/>
				</g>
			</g>
		</g>
		<g id="组_101" transform="translate(276.648 347.407)">
			<g>
				<defs>
					<rect id="SVGID_00000152947167174912459990000007245022123417031842_" x="0.4" y="-0.4" width="17" height="26"/>
				</defs>
				<clipPath id="SVGID_00000134211694522992339260000000944375628095649942_">
					<use xlink:href="#SVGID_00000152947167174912459990000007245022123417031842_"  style="overflow:visible;"/>
				</clipPath>
				
					<g id="组_100" transform="translate(0 0)" style="clip-path:url(#SVGID_00000134211694522992339260000000944375628095649942_);">
					<path id="路径_16" class="st13" d="M8.5-0.1v15.5c-2.8-1.6-6.4-0.6-8,2.2s-0.6,6.4,2.2,8c2.8,1.6,6.4,0.6,8-2.2
						c0.5-0.9,0.8-1.9,0.8-2.9V5.8h5.9v-5.9H8.5z"/>
				</g>
			</g>
		</g>
	</g>
	<g id="组_268" transform="translate(1199 -23.207)">
		<g id="组_89" transform="translate(151.741 634.429)">
			<g>
				<defs>
					<rect id="SVGID_00000051372534069418772540000015595895780849468297_" x="0.3" y="-0.2" width="28" height="27"/>
				</defs>
				<clipPath id="SVGID_00000021120962502224322660000013881556735316009108_">
					<use xlink:href="#SVGID_00000051372534069418772540000015595895780849468297_"  style="overflow:visible;"/>
				</clipPath>
				
					<g id="组_88" transform="translate(0 0)" style="clip-path:url(#SVGID_00000021120962502224322660000013881556735316009108_);">
					<path id="路径_10" class="st8" d="M14.1-0.5C6.5-0.5,0.3,5.7,0.3,13.4s6.2,13.8,13.8,13.8S27.9,21,27.9,13.4
						C27.9,5.7,21.7-0.5,14.1-0.5 M12.7,24.3c-5.5-0.7-9.7-5.4-9.7-11c0-0.8,0.1-1.7,0.3-2.5l6.6,6.6v1.4c0,1.5,1.2,2.8,2.8,2.8
						V24.3z M22.3,20.8c-0.4-1.1-1.4-1.9-2.6-1.9h-1.4v-4.1c0-0.8-0.6-1.4-1.4-1.4H8.6v-2.8h2.8c0.8,0,1.4-0.6,1.4-1.4V6.4h2.8
						c1.5,0,2.8-1.2,2.8-2.8V3.1c5.6,2.3,8.4,8.7,6.1,14.3C23.9,18.7,23.2,19.8,22.3,20.8"/>
				</g>
			</g>
		</g>
		<g id="组_106" transform="translate(141 666.651)">
			<g>
				<defs>
					<rect id="SVGID_00000069379199845940601030000014357497578744817284_" y="-0.4" width="28" height="23"/>
				</defs>
				<clipPath id="SVGID_00000063618790218160522770000009441720527392656552_">
					<use xlink:href="#SVGID_00000069379199845940601030000014357497578744817284_"  style="overflow:visible;"/>
				</clipPath>
				
					<g id="组_105" transform="translate(0 0)" style="clip-path:url(#SVGID_00000063618790218160522770000009441720527392656552_);">
					<path id="路径_17" class="st6" d="M24.9,0.5H2.8C1.2,0.5,0,1.7,0,3.2l0,16.6c0,1.5,1.2,2.8,2.8,2.8h22.1
						c1.5,0,2.8-1.2,2.8-2.8V3.2C27.6,1.7,26.4,0.5,24.9,0.5 M18,19.8H2.8v-5.5H18L18,19.8z M18,12.9H2.8V7.4H18L18,12.9z
						 M24.9,19.8h-5.5V7.4h5.5V19.8z"/>
				</g>
			</g>
		</g>
		<g id="组_108" transform="translate(174.296 664.503)">
			<g>
				<defs>
					<rect id="SVGID_00000012461769220910275130000013832004115842671255_" x="-0.3" y="-0.3" width="25" height="25"/>
				</defs>
				<clipPath id="SVGID_00000071548382834144853150000003297765213033674129_">
					<use xlink:href="#SVGID_00000012461769220910275130000013832004115842671255_"  style="overflow:visible;"/>
				</clipPath>
				
					<g id="组_107" transform="translate(0 0)" style="clip-path:url(#SVGID_00000071548382834144853150000003297765213033674129_);">
					<path id="路径_18" class="st17" d="M23.3,13.7H1.2c-0.8,0-1.4,0.6-1.4,1.4v8.3c0,0.8,0.6,1.4,1.4,1.4h22.1
						c0.8,0,1.4-0.6,1.4-1.4V15C24.7,14.3,24.1,13.7,23.3,13.7 M5.4,21.9c-1.5,0-2.8-1.2-2.8-2.8c0-1.5,1.2-2.8,2.8-2.8
						s2.8,1.2,2.8,2.8c0,0,0,0,0,0C8.1,20.7,6.9,21.9,5.4,21.9 M23.3-0.2H1.2c-0.8,0-1.4,0.6-1.4,1.4v8.3c0,0.8,0.6,1.4,1.4,1.4
						h22.1c0.8,0,1.4-0.6,1.4-1.4V1.2C24.7,0.5,24.1-0.2,23.3-0.2 M5.4,8.1c-1.5,0-2.8-1.2-2.8-2.8s1.2-2.8,2.8-2.8s2.8,1.2,2.8,2.8
						l0,0C8.1,6.9,6.9,8.1,5.4,8.1"/>
				</g>
			</g>
		</g>
	</g>
	<g id="组_248" transform="translate(1486.435 624.5)">
		
			<rect id="矩形_119" x="1.1" y="17.2" transform="matrix(0.9628 -0.2703 0.2703 0.9628 -5.7404 1.5747)" class="st13" width="3.4" height="8.9"/>
		<g id="组_135" transform="translate(0 0)">
			<g>
				<defs>
					<rect id="SVGID_00000023260030033065774750000008648365780450596507_" x="0" width="42.1" height="43"/>
				</defs>
				<clipPath id="SVGID_00000061450788660493690060000009752235720538803378_">
					<use xlink:href="#SVGID_00000023260030033065774750000008648365780450596507_"  style="overflow:visible;"/>
				</clipPath>
				<g id="组_134" style="clip-path:url(#SVGID_00000061450788660493690060000009752235720538803378_);">
					<path id="路径_19" class="st13" d="M7.5,18.6L4.6,16l2.9,10.3l32.3-9.1c1.5-0.3,2.5-1.7,2.2-3.2l-1.3-4.8L7.5,18.6z"/>
					<path id="路径_20" class="st13" d="M2.1,10.6L2.5,12l5.4,4.9l33.9-9.5l-1.7-6L39.7,0L2.1,10.6z"/>
					<path id="路径_21" class="st13" d="M29.3,22.3l-8.9,2.3c0.5,1,1.4,1.7,2.5,2c0.5,0.1,0.8,0.5,0.8,1c0,0,0,0,0,0
						c0,2.8,0,5.6,0,8.4c-0.2,1.4,0.8,2.7,2.2,2.9c0.2,0,0.4,0,0.6,0c2.8,0,5.6,0,8.3,0c0.9,0,1.1,0.3,1.1,1.1c0,2.8,0.4,3.1,3.2,3
						c0.6,0,0.8-0.3,0.8-0.8c0-3,0-6,0-9c0-0.6-0.2-0.9-0.8-0.8c-0.1,0-0.1,0-0.2,0c-2.7,0-3,0.2-3,2.9c0,0.9-0.3,1.1-1.1,1.1
						c-2.5-0.1-4.9,0-7.4,0c-0.9,0-1.2-0.3-1.2-1.2c0-2.6,0-5.2,0-7.8c0-0.5,0.2-0.9,0.7-1.1C28.4,25.5,29.4,24,29.3,22.3"/>
				</g>
			</g>
		</g>
	</g>
</g>
</svg>
