<?xml version="1.0" encoding="utf-8"?>
<!-- Generator: Adobe Illustrator 26.3.1, SVG Export Plug-In . SVG Version: 6.00 Build 0)  -->
<svg version="1.1" id="圖層_1" xmlns="http://www.w3.org/2000/svg" xmlns:xlink="http://www.w3.org/1999/xlink" x="0px" y="0px"
	 viewBox="0 0 491 277" style="enable-background:new 0 0 491 277;" xml:space="preserve">
<style type="text/css">
	.st0{fill:#1A84F9;}
	.st1{fill:none;stroke:#F2F8FE;}
	.st2{fill:#FFFFFF;}
	.st3{clip-path:url(#SVGID_00000018196155582203090920000010552032783746554760_);}
	.st4{clip-path:url(#SVGID_00000182488239492263000190000010260375522835561876_);}
	.st5{fill:#00C2FF;}
	.st6{clip-path:url(#SVGID_00000054260817052138025870000003474285674896732561_);}
	.st7{fill:#F2F8FE;}
	.st8{clip-path:url(#SVGID_00000096038486849611818440000012915697515338974089_);}
	.st9{fill:#B3C7DC;}
	.st10{clip-path:url(#SVGID_00000155139924424400521600000016611717923580102317_);}
	.st11{clip-path:url(#SVGID_00000018216368810512898620000011790419398596592256_);}
	.st12{fill:#C0F38D;}
	.st13{clip-path:url(#SVGID_00000104668338776176972090000016810233579534454971_);}
</style>
<g id="组_305" transform="translate(-1246 -553)">
	<g id="版面模組橫01" transform="translate(1246 553)">
		<g id="矩形_97">
			<rect y="-0.5" class="st0" width="245.5" height="277"/>
			<rect x="0.5" y="0" class="st1" width="244.5" height="276"/>
		</g>
	</g>
	<g id="版面模組橫01-2" transform="translate(1491.5 553)">
		<g id="矩形_97-2">
			<rect y="-0.5" class="st0" width="245.5" height="138.5"/>
			<rect x="0.5" y="0" class="st1" width="244.5" height="137.5"/>
		</g>
	</g>
	<g id="版面模組橫01-3" transform="translate(1491.5 691.5)">
		<g id="矩形_97-3">
			<rect y="-0.5" class="st0" width="245.5" height="138.5"/>
			<rect x="0.5" y="0" class="st1" width="244.5" height="137.5"/>
		</g>
	</g>
	<g id="组_302" transform="translate(1593.185 741.5)">
		
			<rect id="矩形_119" x="1.1" y="16.7" transform="matrix(0.9628 -0.2703 0.2703 0.9628 -5.6092 1.5567)" class="st2" width="3.4" height="8.9"/>
		<g id="组_135" transform="translate(0 0)">
			<g>
				<defs>
					<rect id="SVGID_1_" x="0" y="-0.5" width="42.1" height="43"/>
				</defs>
				<clipPath id="SVGID_00000174565840255891931550000013004717932741839519_">
					<use xlink:href="#SVGID_1_"  style="overflow:visible;"/>
				</clipPath>
				<g id="组_134" style="clip-path:url(#SVGID_00000174565840255891931550000013004717932741839519_);">
					<path id="路径_19" class="st2" d="M7.5,18.1l-2.9-2.6l2.9,10.3l32.3-9.1c1.5-0.3,2.5-1.7,2.2-3.2l-1.3-4.8L7.5,18.1z"/>
					<path id="路径_20" class="st2" d="M2.1,10.1l0.4,1.4l5.4,4.9l33.9-9.5l-1.7-6l-0.4-1.4L2.1,10.1z"/>
					<path id="路径_21" class="st2" d="M29.3,21.8l-8.9,2.3c0.5,1,1.4,1.7,2.5,2c0.5,0.1,0.8,0.5,0.8,1c0,0,0,0,0,0
						c0,2.8,0,5.6,0,8.4c-0.2,1.4,0.8,2.7,2.2,2.9c0.2,0,0.4,0,0.6,0c2.8,0,5.6,0,8.3,0c0.9,0,1.1,0.3,1.1,1.1c0,2.8,0.4,3.1,3.2,3
						c0.6,0,0.8-0.3,0.8-0.8c0-3,0-6,0-9c0-0.6-0.2-0.9-0.8-0.8c-0.1,0-0.1,0-0.2,0c-2.7,0-3,0.2-3,2.9c0,0.9-0.3,1.1-1.1,1.1
						c-2.5-0.1-4.9,0-7.4,0c-0.9,0-1.2-0.3-1.2-1.2c0-2.6,0-5.2,0-7.8c0-0.5,0.2-0.9,0.7-1.1C28.4,25.1,29.4,23.5,29.3,21.8"/>
				</g>
			</g>
		</g>
	</g>
	<g id="组_299" transform="translate(1202 22.793)">
		<g id="组_89" transform="translate(151.741 634.429)">
			<g>
				<defs>
					<rect id="SVGID_00000147930307399440121420000014979195832140125330_" x="0.3" y="-0.7" width="28" height="27"/>
				</defs>
				<clipPath id="SVGID_00000143584735970977541760000014968749243327697343_">
					<use xlink:href="#SVGID_00000147930307399440121420000014979195832140125330_"  style="overflow:visible;"/>
				</clipPath>
				
					<g id="组_88" transform="translate(0 0)" style="clip-path:url(#SVGID_00000143584735970977541760000014968749243327697343_);">
					<path id="路径_10" class="st5" d="M14.1-0.9C6.5-0.9,0.3,5.2,0.3,12.9s6.2,13.8,13.8,13.8s13.8-6.2,13.8-13.8
						C27.9,5.2,21.7-0.9,14.1-0.9 M12.7,23.8c-5.5-0.7-9.7-5.4-9.7-10.9c0-0.8,0.1-1.7,0.3-2.5L10,17v1.4c0,1.5,1.2,2.8,2.8,2.8
						V23.8z M22.3,20.3c-0.4-1.1-1.4-1.9-2.6-1.9h-1.4v-4.1c0-0.8-0.6-1.4-1.4-1.4H8.6v-2.8h2.8c0.8,0,1.4-0.6,1.4-1.4V6h2.8
						c1.5,0,2.8-1.2,2.8-2.8V2.6c5.6,2.3,8.4,8.7,6.1,14.3C23.9,18.2,23.2,19.3,22.3,20.3"/>
				</g>
			</g>
		</g>
		<g id="组_106" transform="translate(141 666.651)">
			<g>
				<defs>
					<rect id="SVGID_00000051380689394798650270000007516391958144880045_" y="-0.9" width="28" height="23"/>
				</defs>
				<clipPath id="SVGID_00000053539179374097954330000007422411376966401160_">
					<use xlink:href="#SVGID_00000051380689394798650270000007516391958144880045_"  style="overflow:visible;"/>
				</clipPath>
				
					<g id="组_105" transform="translate(0 0)" style="clip-path:url(#SVGID_00000053539179374097954330000007422411376966401160_);">
					<path id="路径_17" class="st7" d="M24.9,0H2.8C1.2,0,0,1.2,0,2.7l0,16.6c0,1.5,1.2,2.8,2.8,2.8h22.1c1.5,0,2.8-1.2,2.8-2.8
						V2.7C27.6,1.2,26.4,0,24.9,0 M18,19.3H2.8v-5.5H18L18,19.3z M18,12.4H2.8V6.9H18L18,12.4z M24.9,19.3h-5.5V6.9h5.5V19.3z"/>
				</g>
			</g>
		</g>
		<g id="组_108" transform="translate(174.296 664.503)">
			<g>
				<defs>
					<rect id="SVGID_00000111892102301973667100000007085965499688962238_" x="-0.3" y="-0.8" width="25" height="25"/>
				</defs>
				<clipPath id="SVGID_00000079463630961613364120000002067164507517958031_">
					<use xlink:href="#SVGID_00000111892102301973667100000007085965499688962238_"  style="overflow:visible;"/>
				</clipPath>
				
					<g id="组_107" transform="translate(0 0)" style="clip-path:url(#SVGID_00000079463630961613364120000002067164507517958031_);">
					<path id="路径_18" class="st9" d="M23.3,13.2H1.2c-0.8,0-1.4,0.6-1.4,1.4v8.3c0,0.8,0.6,1.4,1.4,1.4h22.1
						c0.8,0,1.4-0.6,1.4-1.4v-8.3C24.7,13.8,24.1,13.2,23.3,13.2 M5.4,21.5c-1.5,0-2.8-1.2-2.8-2.8c0-1.5,1.2-2.8,2.8-2.8
						s2.8,1.2,2.8,2.8c0,0,0,0,0,0C8.1,20.2,6.9,21.5,5.4,21.5 M23.3-0.6H1.2C0.5-0.6-0.2,0-0.2,0.7V9c0,0.8,0.6,1.4,1.4,1.4h22.1
						c0.8,0,1.4-0.6,1.4-1.4V0.7C24.7,0,24.1-0.6,23.3-0.6 M5.4,7.6c-1.5,0-2.8-1.2-2.8-2.8s1.2-2.8,2.8-2.8s2.8,1.2,2.8,2.8l0,0
						C8.1,6.4,6.9,7.6,5.4,7.6"/>
				</g>
			</g>
		</g>
	</g>
	<g id="组_300" transform="translate(1349 279)">
		<g id="组_91" transform="translate(256.123 315)">
			<g>
				<defs>
					<rect id="SVGID_00000030467251399717381750000003864763711417970830_" x="-0.1" y="-0.5" width="29" height="24"/>
				</defs>
				<clipPath id="SVGID_00000127018035002776756990000008388383203351332010_">
					<use xlink:href="#SVGID_00000030467251399717381750000003864763711417970830_"  style="overflow:visible;"/>
				</clipPath>
				<g id="组_90" transform="translate(0)" style="clip-path:url(#SVGID_00000127018035002776756990000008388383203351332010_);">
					<path id="路径_11" class="st5" d="M23.1-0.5L26,5.4h-4.4l-2.9-5.9h-2.9l2.9,5.9h-4.4l-2.9-5.9H8.4l2.9,5.9H6.9L4-0.5H2.5
						c-1.6,0-2.9,1.3-2.9,2.9l0,17.6c0,1.6,1.3,2.9,2.9,2.9H26c1.6,0,2.9-1.3,2.9-2.9V-0.5H23.1z"/>
				</g>
			</g>
		</g>
		<g id="组_93" transform="translate(241 344.167)">
			<g>
				<defs>
					<rect id="SVGID_00000000936733192181281800000014100690238822454678_" y="-0.7" width="29" height="29"/>
				</defs>
				<clipPath id="SVGID_00000088111367400353826020000001634584786398660787_">
					<use xlink:href="#SVGID_00000000936733192181281800000014100690238822454678_"  style="overflow:visible;"/>
				</clipPath>
				
					<g id="组_92" transform="translate(0 0)" style="clip-path:url(#SVGID_00000088111367400353826020000001634584786398660787_);">
					<path id="路径_12" class="st12" d="M29.4,20.3V2.7c0-1.6-1.3-2.9-2.9-2.9H8.8c-1.6,0-2.9,1.3-2.9,2.9v17.6
						c0,1.6,1.3,2.9,2.9,2.9h17.6C28.1,23.3,29.4,22,29.4,20.3 M13.2,14.5l3,4l4.4-5.5l5.9,7.4H8.8L13.2,14.5z M0,5.6v20.6
						c0,1.6,1.3,2.9,2.9,2.9h20.6v-2.9H2.9V5.6H0z"/>
				</g>
			</g>
		</g>
		<g id="组_101" transform="translate(276.648 347.407)">
			<g>
				<defs>
					<rect id="SVGID_00000083799715166244209740000001865879796616506504_" x="0.4" y="-0.9" width="17" height="26"/>
				</defs>
				<clipPath id="SVGID_00000092426503876216721430000005381018930194898610_">
					<use xlink:href="#SVGID_00000083799715166244209740000001865879796616506504_"  style="overflow:visible;"/>
				</clipPath>
				
					<g id="组_100" transform="translate(0 0)" style="clip-path:url(#SVGID_00000092426503876216721430000005381018930194898610_);">
					<path id="路径_16" class="st2" d="M8.5-0.5V15c-2.8-1.6-6.4-0.6-8,2.2s-0.6,6.4,2.2,8c2.8,1.6,6.4,0.6,8-2.2
						c0.5-0.9,0.8-1.9,0.8-2.9V5.3h5.9v-5.9H8.5z"/>
				</g>
			</g>
		</g>
	</g>
</g>
</svg>
