<?xml version="1.0" encoding="utf-8"?>
<!-- Generator: Adobe Illustrator 26.3.1, SVG Export Plug-In . SVG Version: 6.00 Build 0)  -->
<svg version="1.1" id="圖層_1" xmlns="http://www.w3.org/2000/svg" xmlns:xlink="http://www.w3.org/1999/xlink" x="0px" y="0px"
	 viewBox="0 0 491 277" style="enable-background:new 0 0 491 277;" xml:space="preserve">
<style type="text/css">
	.st0{fill:#1A84F9;}
	.st1{fill:none;stroke:#F2F8FE;}
	.st2{fill:#FFFFFF;}
	.st3{clip-path:url(#SVGID_00000168078337654860675210000000391883281375426201_);}
	.st4{clip-path:url(#SVGID_00000110447570761060712830000004082639093853933966_);}
	.st5{fill:#F8E28A;}
	.st6{clip-path:url(#SVGID_00000082363823907282312170000004509590533221889186_);}
	.st7{fill:#F2F8FE;}
	.st8{clip-path:url(#SVGID_00000012447706664729134980000006835824170333057199_);}
	.st9{fill:#00C2FF;}
	.st10{clip-path:url(#SVGID_00000067219883109860589240000013012737512434121099_);}
	.st11{clip-path:url(#SVGID_00000030459175236860846690000014568832478296245439_);}
	.st12{clip-path:url(#SVGID_00000125568460044984795400000003097042159950726545_);}
	.st13{fill:#B3C7DC;}
</style>
<g id="组_303" transform="translate(-137 -553)">
	<g id="版面模組橫01" transform="translate(137 553)">
		<g id="矩形_97">
			<rect y="-0.5" class="st0" width="491" height="194"/>
			<rect x="0.5" y="0" class="st1" width="490" height="193"/>
		</g>
	</g>
	<g id="版面模組橫01-2" transform="translate(137 747)">
		<g id="矩形_97-2">
			<rect y="-0.5" class="st0" width="245.5" height="83"/>
			<rect x="0.5" y="0" class="st1" width="244.5" height="82"/>
		</g>
	</g>
	<g id="版面模組橫01-3" transform="translate(382.5 747)">
		<g id="矩形_97-3">
			<rect y="-0.5" class="st0" width="245.5" height="83"/>
			<rect x="0.5" y="0" class="st1" width="244.5" height="82"/>
		</g>
	</g>
	<g id="组_214" transform="translate(484.185 772.5)">
		
			<rect id="矩形_119" x="1.1" y="16.7" transform="matrix(0.9628 -0.2703 0.2703 0.9628 -5.6062 1.5562)" class="st2" width="3.4" height="8.9"/>
		<g id="组_135" transform="translate(0 0)">
			<g>
				<defs>
					<rect id="SVGID_1_" x="0" y="-0.5" width="42.1" height="43"/>
				</defs>
				<clipPath id="SVGID_00000124876453811961542970000003990298791089586307_">
					<use xlink:href="#SVGID_1_"  style="overflow:visible;"/>
				</clipPath>
				<g id="组_134" style="clip-path:url(#SVGID_00000124876453811961542970000003990298791089586307_);">
					<path id="路径_19" class="st2" d="M7.5,18.1l-2.9-2.6l2.9,10.3l32.3-9.1c1.5-0.3,2.5-1.7,2.2-3.2l-1.3-4.8L7.5,18.1z"/>
					<path id="路径_20" class="st2" d="M2.1,10.1l0.4,1.4l5.4,4.9l33.9-9.5l-1.7-6l-0.4-1.4L2.1,10.1z"/>
					<path id="路径_21" class="st2" d="M29.3,21.8l-8.9,2.3c0.5,1,1.4,1.7,2.5,2c0.5,0.1,0.8,0.5,0.8,1c0,0,0,0,0,0
						c0,2.8,0,5.6,0,8.4c-0.2,1.4,0.8,2.7,2.2,2.9c0.2,0,0.4,0,0.6,0c2.8,0,5.6,0,8.3,0c0.9,0,1.1,0.3,1.1,1.1c0,2.8,0.4,3.1,3.2,3
						c0.6,0,0.8-0.3,0.8-0.8c0-3,0-6,0-9c0-0.6-0.2-0.9-0.8-0.8c-0.1,0-0.1,0-0.2,0c-2.7,0-3,0.2-3,2.9c0,0.9-0.3,1.1-1.1,1.1
						c-2.5-0.1-4.9,0-7.4,0c-0.9,0-1.2-0.3-1.2-1.2c0-2.6,0-5.2,0-7.8c0-0.5,0.2-0.9,0.7-1.1C28.4,25.1,29.4,23.5,29.3,21.8"/>
				</g>
			</g>
		</g>
	</g>
	<g id="组_289" transform="translate(127 441)">
		<g id="组_87" transform="translate(114.657 312)">
			<g>
				<defs>
					<rect id="SVGID_00000134955008036763364060000003593982851820575419_" x="0.3" y="-0.5" width="38" height="37"/>
				</defs>
				<clipPath id="SVGID_00000137834485647475028820000005350850959508435133_">
					<use xlink:href="#SVGID_00000134955008036763364060000003593982851820575419_"  style="overflow:visible;"/>
				</clipPath>
				<g id="组_86" transform="translate(0)" style="clip-path:url(#SVGID_00000137834485647475028820000005350850959508435133_);">
					<path id="路径_9" class="st5" d="M17.4,4.6V1.2c0-0.9,0.8-1.7,1.7-1.7c0.9,0,1.6,0.8,1.7,1.7v3.4c0,0.9-0.8,1.7-1.7,1.7
						C18.1,6.3,17.4,5.5,17.4,4.6 M29.9,9.8l2.4-2.4C33,6.8,33,5.7,32.4,5c-0.6-0.7-1.7-0.7-2.4-0.1c0,0-0.1,0-0.1,0.1l-2.4,2.4
						c-0.7,0.7-0.7,1.7,0,2.4S29.3,10.5,29.9,9.8 M36.1,16.6h-3.4c-0.9,0-1.7,0.8-1.7,1.7c0,0.9,0.8,1.6,1.7,1.7h3.4
						c0.9,0,1.7-0.7,1.7-1.7C37.9,17.4,37.2,16.6,36.1,16.6C36.2,16.6,36.2,16.6,36.1,16.6 M19.1,30.2c-0.9,0-1.7,0.8-1.7,1.7v3.4
						c0,0.9,0.7,1.7,1.7,1.7c0.9,0,1.7-0.7,1.7-1.7c0,0,0-0.1,0-0.1v-3.4C20.8,31,20,30.2,19.1,30.2 M8.2,9.8L5.8,7.4
						C5.1,6.7,5.2,5.7,5.9,5c0.7-0.6,1.7-0.6,2.3,0l2.4,2.4c0.7,0.6,0.8,1.7,0.2,2.4c-0.6,0.7-1.7,0.8-2.4,0.2
						C8.3,10,8.3,9.9,8.2,9.8 M27.5,26.7c-0.7,0.7-0.7,1.7,0,2.4c0,0,0,0,0,0l2.4,2.4c0.7,0.7,1.7,0.7,2.4,0c0.7-0.7,0.7-1.7,0-2.4
						l0,0l-2.4-2.4C29.3,26.1,28.2,26.1,27.5,26.7C27.5,26.7,27.5,26.7,27.5,26.7 M2,20h3.4c0.9,0,1.7-0.8,1.7-1.7
						c0-0.9-0.8-1.6-1.7-1.7H2c-0.9,0-1.7,0.8-1.7,1.7C0.4,19.2,1.1,20,2,20 M8.2,31.6l2.4-2.4c0.7-0.7,0.7-1.7,0-2.4
						s-1.7-0.7-2.4,0l-2.4,2.4c-0.7,0.7-0.7,1.7,0,2.4S7.5,32.2,8.2,31.6L8.2,31.6 M19.1,8C13.4,8,8.8,12.6,8.8,18.3
						s4.6,10.2,10.2,10.2c5.7,0,10.2-4.6,10.2-10.2C29.3,12.6,24.7,8,19.1,8"/>
				</g>
			</g>
		</g>
		<g id="组_97" transform="translate(148.657 336.286)">
			<g>
				<defs>
					<rect id="SVGID_00000056387062473298603550000010091717820052920480_" x="0.3" y="-0.8" width="17" height="34"/>
				</defs>
				<clipPath id="SVGID_00000150781883174473796580000007210590152684009605_">
					<use xlink:href="#SVGID_00000056387062473298603550000010091717820052920480_"  style="overflow:visible;"/>
				</clipPath>
				
					<g id="组_96" transform="translate(0 0)" style="clip-path:url(#SVGID_00000150781883174473796580000007210590152684009605_);">
					<path id="路径_14" class="st7" d="M14.1,17.9V4.2c0-2.8-2.2-5.2-5-5.2c-2.8,0-5.2,2.2-5.2,5c0,0,0,0.1,0,0.1v13.7
						c-3.8,2.8-4.5,8.2-1.7,11.9s8.2,4.5,11.9,1.7c3.8-2.8,4.5-8.2,1.7-11.9C15.3,18.9,14.7,18.4,14.1,17.9 M7.2,4.2
						c0-0.9,0.7-1.7,1.7-1.7s1.7,0.7,1.7,1.7c0,0,0,0.1,0,0.1H9v1.7h1.7v3.4H9v1.7h1.7v3.4H7.2V4.2z"/>
				</g>
			</g>
		</g>
		<g id="组_99" transform="translate(103 353.771)">
			<g>
				<defs>
					<rect id="SVGID_00000049929075547863317270000008698122462266405256_" y="-0.3" width="42" height="26"/>
				</defs>
				<clipPath id="SVGID_00000093871496037953891500000003710349877134462642_">
					<use xlink:href="#SVGID_00000049929075547863317270000008698122462266405256_"  style="overflow:visible;"/>
				</clipPath>
				
					<g id="组_98" transform="translate(0 0)" style="clip-path:url(#SVGID_00000093871496037953891500000003710349877134462642_);">
					<path id="路径_15" class="st9" d="M33,9C31.7,2.1,24.9-2.4,18-1.1c-3.8,0.8-7.1,3.2-8.9,6.7c-5.6,0.6-9.7,5.7-9,11.3
						C0.7,22.1,5,26,10.2,26h22.2c4.7,0,8.5-3.7,8.6-8.4C41.1,13,37.5,9.3,33,9 M32.4,22.6H10.2c-3.8,0-6.8-3.1-6.8-6.8
						s3.1-6.8,6.8-6.8c0,0,0,0,0,0h1.2c1.4-5,6.6-7.9,11.6-6.5c4,1.1,6.8,4.8,6.8,9v0.9h2.6c2.8,0,5.2,2.2,5.2,5s-2.2,5.2-5,5.2
						C32.5,22.6,32.5,22.6,32.4,22.6"/>
				</g>
			</g>
		</g>
	</g>
	<g id="组_297" transform="translate(209 -11.207)">
		<g id="组_89" transform="translate(151.741 634.429)">
			<g>
				<defs>
					<rect id="SVGID_00000036241375551763189950000011759015083057234576_" x="0.3" y="-0.7" width="28" height="27"/>
				</defs>
				<clipPath id="SVGID_00000083807105071944497430000012897522146921616312_">
					<use xlink:href="#SVGID_00000036241375551763189950000011759015083057234576_"  style="overflow:visible;"/>
				</clipPath>
				
					<g id="组_88" transform="translate(0 0)" style="clip-path:url(#SVGID_00000083807105071944497430000012897522146921616312_);">
					<path id="路径_10" class="st9" d="M14.1-1C6.5-1,0.3,5.2,0.3,12.9s6.2,13.8,13.8,13.8s13.8-6.2,13.8-13.8
						C27.9,5.2,21.7-1,14.1-1 M12.7,23.8c-5.5-0.7-9.7-5.4-9.7-10.9c0-0.8,0.1-1.7,0.3-2.5L10,17v1.4c0,1.5,1.2,2.8,2.8,2.8V23.8z
						 M22.3,20.3c-0.4-1.1-1.4-1.9-2.6-1.9h-1.4v-4.1c0-0.8-0.6-1.4-1.4-1.4H8.6v-2.8h2.8c0.8,0,1.4-0.6,1.4-1.4V5.9h2.8
						c1.5,0,2.8-1.2,2.8-2.8V2.6c5.6,2.3,8.4,8.7,6.1,14.3C23.9,18.2,23.2,19.3,22.3,20.3"/>
				</g>
			</g>
		</g>
		<g id="组_106" transform="translate(141 666.651)">
			<g>
				<defs>
					<rect id="SVGID_00000034792236224077954580000001989846431697323964_" y="-0.9" width="28" height="23"/>
				</defs>
				<clipPath id="SVGID_00000176031456341585868620000007413477131530347429_">
					<use xlink:href="#SVGID_00000034792236224077954580000001989846431697323964_"  style="overflow:visible;"/>
				</clipPath>
				
					<g id="组_105" transform="translate(0 0)" style="clip-path:url(#SVGID_00000176031456341585868620000007413477131530347429_);">
					<path id="路径_17" class="st7" d="M24.9,0H2.8C1.2,0,0,1.2,0,2.7l0,16.6c0,1.5,1.2,2.8,2.8,2.8h22.1c1.5,0,2.8-1.2,2.8-2.8
						V2.7C27.6,1.2,26.4,0,24.9,0 M18,19.3H2.8v-5.5H18L18,19.3z M18,12.4H2.8V6.9H18L18,12.4z M24.9,19.3h-5.5V6.9h5.5V19.3z"/>
				</g>
			</g>
		</g>
		<g id="组_108" transform="translate(174.296 664.503)">
			<g>
				<defs>
					<rect id="SVGID_00000022547004424481354180000016105552559451207067_" x="-0.3" y="-0.8" width="25" height="25"/>
				</defs>
				<clipPath id="SVGID_00000101821527838661122650000017116502714009206957_">
					<use xlink:href="#SVGID_00000022547004424481354180000016105552559451207067_"  style="overflow:visible;"/>
				</clipPath>
				
					<g id="组_107" transform="translate(0 0)" style="clip-path:url(#SVGID_00000101821527838661122650000017116502714009206957_);">
					<path id="路径_18" class="st13" d="M23.3,13.2H1.2c-0.8,0-1.4,0.6-1.4,1.4v8.3c0,0.8,0.6,1.4,1.4,1.4h22.1
						c0.8,0,1.4-0.6,1.4-1.4v-8.3C24.7,13.8,24.1,13.2,23.3,13.2 M5.4,21.5c-1.5,0-2.8-1.2-2.8-2.8c0-1.5,1.2-2.8,2.8-2.8
						s2.8,1.2,2.8,2.8c0,0,0,0,0,0C8.1,20.2,6.9,21.4,5.4,21.5 M23.3-0.6H1.2C0.5-0.6-0.2,0-0.2,0.7V9c0,0.8,0.6,1.4,1.4,1.4h22.1
						c0.8,0,1.4-0.6,1.4-1.4V0.7C24.7,0,24.1-0.6,23.3-0.6 M5.4,7.6c-1.5,0-2.8-1.2-2.8-2.8s1.2-2.8,2.8-2.8s2.8,1.2,2.8,2.8l0,0
						C8.1,6.4,6.9,7.6,5.4,7.6"/>
				</g>
			</g>
		</g>
	</g>
</g>
</svg>
