<?xml version="1.0" encoding="utf-8"?>
<!-- Generator: Adobe Illustrator 26.3.1, SVG Export Plug-In . SVG Version: 6.00 Build 0)  -->
<svg version="1.1" id="圖層_1" xmlns="http://www.w3.org/2000/svg" xmlns:xlink="http://www.w3.org/1999/xlink" x="0px" y="0px"
	 viewBox="0 0 491 277" style="enable-background:new 0 0 491 277;" xml:space="preserve">
<style type="text/css">
	.st0{fill:#1A84F9;}
	.st1{fill:none;stroke:#F2F8FE;}
	.st2{clip-path:url(#SVGID_00000135672823539409816500000000741536134704866954_);}
	.st3{fill:#F8E28A;}
	.st4{clip-path:url(#SVGID_00000043445138008808931240000003012054382412323493_);}
	.st5{fill:#F2F8FE;}
	.st6{clip-path:url(#SVGID_00000101819796428269659890000015816091821812991911_);}
	.st7{fill:#00C2FF;}
	.st8{clip-path:url(#SVGID_00000054981184142046318170000010433879074672137648_);}
	.st9{clip-path:url(#SVGID_00000106130636062425851500000004889692417217337733_);}
	.st10{clip-path:url(#SVGID_00000070080006112385328990000003579802230155545731_);}
	.st11{fill:#B3C7DC;}
</style>
<g id="组_308" transform="translate(-137 -201)">
	<g id="版面模組橫01" transform="translate(137 201)">
		<g id="矩形_97">
			<rect y="-0.5" class="st0" width="491" height="194"/>
			<rect x="0.5" class="st1" width="490" height="193"/>
		</g>
	</g>
	<g id="版面模組橫01-2" transform="translate(137 395)">
		<g id="矩形_97-2">
			<rect y="-0.5" class="st0" width="491" height="83"/>
			<rect x="0.5" class="st1" width="490" height="82"/>
		</g>
	</g>
	<g id="组_194" transform="translate(245 91)">
		<g id="组_87" transform="translate(114.657 312)">
			<g>
				<defs>
					<rect id="SVGID_1_" x="0.3" y="-0.5" width="38" height="37"/>
				</defs>
				<clipPath id="SVGID_00000139987852209707224730000004701611998283334074_">
					<use xlink:href="#SVGID_1_"  style="overflow:visible;"/>
				</clipPath>
				<g id="组_86" transform="translate(0)" style="clip-path:url(#SVGID_00000139987852209707224730000004701611998283334074_);">
					<path id="路径_9" class="st3" d="M17.4,4.6V1.2c0-0.9,0.8-1.7,1.7-1.7c0.9,0,1.6,0.8,1.7,1.7v3.4c0,0.9-0.8,1.7-1.7,1.7
						C18.1,6.3,17.4,5.5,17.4,4.6 M29.9,9.8l2.4-2.4C33,6.8,33,5.7,32.4,5c-0.6-0.7-1.7-0.7-2.4-0.1c0,0-0.1,0-0.1,0.1l-2.4,2.4
						c-0.7,0.7-0.7,1.7,0,2.4S29.3,10.5,29.9,9.8 M36.1,16.6h-3.4c-0.9,0-1.7,0.8-1.7,1.7c0,0.9,0.8,1.6,1.7,1.7h3.4
						c0.9,0,1.7-0.7,1.7-1.7C37.9,17.4,37.2,16.6,36.1,16.6C36.2,16.6,36.2,16.6,36.1,16.6 M19.1,30.2c-0.9,0-1.7,0.8-1.7,1.7v3.4
						c0,0.9,0.7,1.7,1.7,1.7c0.9,0,1.7-0.7,1.7-1.7c0,0,0-0.1,0-0.1v-3.4C20.8,31,20,30.2,19.1,30.2 M8.2,9.8L5.8,7.4
						C5.1,6.7,5.2,5.7,5.9,5c0.7-0.6,1.7-0.6,2.3,0l2.4,2.4c0.7,0.6,0.8,1.7,0.2,2.4c-0.6,0.7-1.7,0.8-2.4,0.2
						C8.3,9.9,8.3,9.9,8.2,9.8 M27.5,26.7c-0.7,0.7-0.7,1.7,0,2.4c0,0,0,0,0,0l2.4,2.4c0.7,0.7,1.7,0.7,2.4,0c0.7-0.7,0.7-1.7,0-2.4
						l0,0l-2.4-2.4C29.3,26.1,28.2,26.1,27.5,26.7C27.5,26.7,27.5,26.7,27.5,26.7 M2,20h3.4c0.9,0,1.7-0.8,1.7-1.7
						c0-0.9-0.8-1.6-1.7-1.7H2c-0.9,0-1.7,0.8-1.7,1.7C0.4,19.2,1.1,20,2,20 M8.2,31.5l2.4-2.4c0.7-0.7,0.7-1.7,0-2.4
						s-1.7-0.7-2.4,0l-2.4,2.4c-0.7,0.7-0.7,1.7,0,2.4S7.5,32.2,8.2,31.5L8.2,31.5 M19.1,8C13.4,8,8.8,12.6,8.8,18.3
						s4.6,10.2,10.2,10.2c5.7,0,10.2-4.6,10.2-10.2C29.3,12.6,24.7,8,19.1,8"/>
				</g>
			</g>
		</g>
		<g id="组_97" transform="translate(148.657 336.286)">
			<g>
				<defs>
					<rect id="SVGID_00000059311610614449870520000006622577248175998357_" x="0.3" y="-0.8" width="17" height="34"/>
				</defs>
				<clipPath id="SVGID_00000055699424522220294470000006974231894748785333_">
					<use xlink:href="#SVGID_00000059311610614449870520000006622577248175998357_"  style="overflow:visible;"/>
				</clipPath>
				
					<g id="组_96" transform="translate(0 0)" style="clip-path:url(#SVGID_00000055699424522220294470000006974231894748785333_);">
					<path id="路径_14" class="st5" d="M14.1,17.9V4.2c0-2.8-2.2-5.2-5-5.2s-5.2,2.2-5.2,5c0,0,0,0.1,0,0.1v13.7
						c-3.8,2.8-4.5,8.2-1.7,11.9s8.2,4.5,11.9,1.7c3.8-2.8,4.5-8.2,1.7-11.9C15.3,18.9,14.7,18.4,14.1,17.9 M7.2,4.2
						c0-0.9,0.7-1.7,1.7-1.7s1.7,0.7,1.7,1.7c0,0,0,0.1,0,0.1H9v1.7h1.7v3.4H9v1.7h1.7v3.4H7.2V4.2z"/>
				</g>
			</g>
		</g>
		<g id="组_99" transform="translate(103 353.771)">
			<g>
				<defs>
					<rect id="SVGID_00000112632708607389231830000007654178107024770710_" y="-0.3" width="42" height="26"/>
				</defs>
				<clipPath id="SVGID_00000068637530457531180340000001933788625232606639_">
					<use xlink:href="#SVGID_00000112632708607389231830000007654178107024770710_"  style="overflow:visible;"/>
				</clipPath>
				
					<g id="组_98" transform="translate(0 0)" style="clip-path:url(#SVGID_00000068637530457531180340000001933788625232606639_);">
					<path id="路径_15" class="st7" d="M33,9C31.7,2.1,24.9-2.4,18-1.1c-3.8,0.8-7.1,3.2-8.9,6.7c-5.6,0.6-9.7,5.7-9,11.3
						C0.7,22.1,5,26,10.2,26h22.2c4.7,0,8.5-3.7,8.6-8.4C41.1,13,37.5,9.3,33,9 M32.4,22.6H10.2c-3.8,0-6.8-3.1-6.8-6.8
						s3.1-6.8,6.8-6.8c0,0,0,0,0,0h1.2c1.4-5,6.6-7.9,11.6-6.5c4,1.1,6.8,4.8,6.8,9v0.9h2.6c2.8,0,5.2,2.2,5.2,5s-2.2,5.2-5,5.2
						C32.5,22.6,32.5,22.6,32.4,22.6"/>
				</g>
			</g>
		</g>
	</g>
	<g id="组_294" transform="translate(209 -363.207)">
		<g id="组_89" transform="translate(151.741 634.429)">
			<g>
				<defs>
					<rect id="SVGID_00000159463554402209142550000002821381538126632846_" x="0.3" y="-0.7" width="28" height="27"/>
				</defs>
				<clipPath id="SVGID_00000180333561215184397020000008853750959931405715_">
					<use xlink:href="#SVGID_00000159463554402209142550000002821381538126632846_"  style="overflow:visible;"/>
				</clipPath>
				
					<g id="组_88" transform="translate(0 0)" style="clip-path:url(#SVGID_00000180333561215184397020000008853750959931405715_);">
					<path id="路径_10" class="st7" d="M14.1-1C6.5-1,0.3,5.2,0.3,12.9s6.2,13.8,13.8,13.8s13.8-6.2,13.8-13.8
						C27.9,5.2,21.7-1,14.1-1 M12.7,23.8c-5.5-0.7-9.7-5.4-9.7-11c0-0.8,0.1-1.7,0.3-2.5L10,17v1.4c0,1.5,1.2,2.8,2.8,2.8V23.8z
						 M22.3,20.3c-0.4-1.1-1.4-1.9-2.6-1.9h-1.4v-4.1c0-0.8-0.6-1.4-1.4-1.4H8.6v-2.8h2.8c0.8,0,1.4-0.6,1.4-1.4V5.9h2.8
						c1.5,0,2.8-1.2,2.8-2.8V2.6c5.6,2.3,8.4,8.7,6.1,14.3C23.9,18.2,23.2,19.3,22.3,20.3"/>
				</g>
			</g>
		</g>
		<g id="组_106" transform="translate(141 666.651)">
			<g>
				<defs>
					<rect id="SVGID_00000140007806452193519920000001645814947612549051_" y="-0.9" width="28" height="23"/>
				</defs>
				<clipPath id="SVGID_00000083788980044176919250000015893995953391573137_">
					<use xlink:href="#SVGID_00000140007806452193519920000001645814947612549051_"  style="overflow:visible;"/>
				</clipPath>
				
					<g id="组_105" transform="translate(0 0)" style="clip-path:url(#SVGID_00000083788980044176919250000015893995953391573137_);">
					<path id="路径_17" class="st5" d="M24.9,0H2.8C1.2,0,0,1.2,0,2.7l0,16.6c0,1.5,1.2,2.8,2.8,2.8h22.1c1.5,0,2.8-1.2,2.8-2.8
						V2.7C27.6,1.2,26.4,0,24.9,0 M18,19.3H2.8v-5.5H18L18,19.3z M18,12.4H2.8V6.9H18L18,12.4z M24.9,19.3h-5.5V6.9h5.5V19.3z"/>
				</g>
			</g>
		</g>
		<g id="组_108" transform="translate(174.296 664.503)">
			<g>
				<defs>
					<rect id="SVGID_00000156572397869124602650000015095709679831269518_" x="-0.3" y="-0.8" width="25" height="25"/>
				</defs>
				<clipPath id="SVGID_00000060006442718658239270000003579377072779504049_">
					<use xlink:href="#SVGID_00000156572397869124602650000015095709679831269518_"  style="overflow:visible;"/>
				</clipPath>
				
					<g id="组_107" transform="translate(0 0)" style="clip-path:url(#SVGID_00000060006442718658239270000003579377072779504049_);">
					<path id="路径_18" class="st11" d="M23.3,13.2H1.2c-0.8,0-1.4,0.6-1.4,1.4v8.3c0,0.8,0.6,1.4,1.4,1.4h22.1
						c0.8,0,1.4-0.6,1.4-1.4v-8.3C24.7,13.8,24.1,13.2,23.3,13.2 M5.4,21.4c-1.5,0-2.8-1.2-2.8-2.8c0-1.5,1.2-2.8,2.8-2.8
						s2.8,1.2,2.8,2.8c0,0,0,0,0,0C8.1,20.2,6.9,21.4,5.4,21.4 M23.3-0.7H1.2C0.5-0.7-0.2,0-0.2,0.7V9c0,0.8,0.6,1.4,1.4,1.4h22.1
						c0.8,0,1.4-0.6,1.4-1.4V0.7C24.7,0,24.1-0.7,23.3-0.7 M5.4,7.6c-1.5,0-2.8-1.2-2.8-2.8s1.2-2.8,2.8-2.8s2.8,1.2,2.8,2.8l0,0
						C8.1,6.4,6.9,7.6,5.4,7.6"/>
				</g>
			</g>
		</g>
	</g>
</g>
</svg>
