<?xml version="1.0" encoding="utf-8"?>
<!-- Generator: Adobe Illustrator 26.3.1, SVG Export Plug-In . SVG Version: 6.00 Build 0)  -->
<svg version="1.1" id="圖層_1" xmlns="http://www.w3.org/2000/svg" xmlns:xlink="http://www.w3.org/1999/xlink" x="0px" y="0px"
	 viewBox="0 0 491 277" style="enable-background:new 0 0 491 277;" xml:space="preserve">
<style type="text/css">
	.st0{fill:#1A84F9;}
	.st1{fill:none;stroke:#F2F8FE;}
	.st2{fill:#FFFFFF;}
	.st3{clip-path:url(#SVGID_00000074404093584826624760000004920188067185442971_);}
	.st4{clip-path:url(#SVGID_00000152222823226995189600000013759650310818768044_);}
	.st5{fill:#F8E28A;}
	.st6{clip-path:url(#SVGID_00000165236799297581853880000001523788439946529214_);}
	.st7{fill:#F2F8FE;}
	.st8{clip-path:url(#SVGID_00000015323689912856165800000001465716177342635176_);}
	.st9{fill:#00C2FF;}
	.st10{clip-path:url(#SVGID_00000158751361647626909180000007449250227772838535_);}
	.st11{clip-path:url(#SVGID_00000014620184457505196490000015862394130203007111_);}
	.st12{fill:#C0F38D;}
	.st13{clip-path:url(#SVGID_00000075151481256797975900000009893093147324187813_);}
</style>
<g id="组_304" transform="translate(-692 -553)">
	<g id="版面模組橫01" transform="translate(692 636)">
		<g id="矩形_97">
			<rect y="-0.6" class="st0" width="491" height="194"/>
			<rect x="0.5" y="-0.1" class="st1" width="490" height="193"/>
		</g>
	</g>
	<g id="版面模組橫01-2" transform="translate(692 553)">
		<g id="矩形_97-2">
			<rect y="-0.6" class="st0" width="245.5" height="83"/>
			<rect x="0.5" y="-0.1" class="st1" width="244.5" height="82"/>
		</g>
	</g>
	<g id="版面模組橫01-3" transform="translate(937.5 553)">
		<g id="矩形_97-3">
			<rect y="-0.6" class="st0" width="245.5" height="83"/>
			<rect x="0.5" y="-0.1" class="st1" width="244.5" height="82"/>
		</g>
	</g>
	<g id="组_301" transform="translate(1039.185 573.5)">
		
			<rect id="矩形_119" x="1.1" y="16.6" transform="matrix(0.9628 -0.2703 0.2703 0.9628 -5.5853 1.5534)" class="st2" width="3.4" height="8.9"/>
		<g id="组_135" transform="translate(0 0)">
			<g>
				<defs>
					<rect id="SVGID_1_" x="0" y="-0.6" width="42.1" height="43"/>
				</defs>
				<clipPath id="SVGID_00000072988096984566468750000016031930696773151923_">
					<use xlink:href="#SVGID_1_"  style="overflow:visible;"/>
				</clipPath>
				<g id="组_134" style="clip-path:url(#SVGID_00000072988096984566468750000016031930696773151923_);">
					<path id="路径_19" class="st2" d="M7.5,18l-2.9-2.6l2.9,10.3l32.3-9.1c1.5-0.3,2.5-1.7,2.2-3.2l-1.3-4.8L7.5,18z"/>
					<path id="路径_20" class="st2" d="M2.1,10l0.4,1.4l5.4,4.9l33.9-9.5l-1.7-6l-0.4-1.4L2.1,10z"/>
					<path id="路径_21" class="st2" d="M29.3,21.7L20.4,24c0.5,1,1.4,1.7,2.5,2c0.5,0.1,0.8,0.5,0.8,1c0,0,0,0,0,0
						c0,2.8,0,5.6,0,8.4c-0.2,1.4,0.8,2.7,2.2,2.9c0.2,0,0.4,0,0.6,0c2.8,0,5.6,0,8.3,0c0.9,0,1.1,0.3,1.1,1.1c0,2.8,0.4,3.1,3.2,3
						c0.6,0,0.8-0.3,0.8-0.8c0-3,0-6,0-9c0-0.6-0.2-0.9-0.8-0.8c-0.1,0-0.1,0-0.2,0c-2.7,0-3,0.2-3,2.9c0,0.9-0.3,1.1-1.1,1.1
						c-2.5-0.1-4.9,0-7.4,0c-0.9,0-1.2-0.3-1.2-1.2c0-2.6,0-5.2,0-7.8c0-0.5,0.2-0.9,0.7-1.1C28.4,25,29.4,23.4,29.3,21.7"/>
				</g>
			</g>
		</g>
	</g>
	<g id="组_298" transform="translate(684 249)">
		<g id="组_87" transform="translate(114.657 312)">
			<g>
				<defs>
					<rect id="SVGID_00000150070761396403263560000017338495326719084478_" x="0.3" y="-0.6" width="38" height="37"/>
				</defs>
				<clipPath id="SVGID_00000036228409229866418020000003756330491204021394_">
					<use xlink:href="#SVGID_00000150070761396403263560000017338495326719084478_"  style="overflow:visible;"/>
				</clipPath>
				<g id="组_86" transform="translate(0)" style="clip-path:url(#SVGID_00000036228409229866418020000003756330491204021394_);">
					<path id="路径_9" class="st5" d="M17.4,4.5V1.1c0-0.9,0.8-1.7,1.7-1.7c0.9,0,1.6,0.8,1.7,1.7v3.4c0,0.9-0.8,1.7-1.7,1.7
						C18.1,6.2,17.4,5.5,17.4,4.5 M29.9,9.8l2.4-2.4C33,6.7,33,5.6,32.4,4.9c-0.6-0.7-1.7-0.7-2.4-0.1c0,0-0.1,0-0.1,0.1l-2.4,2.4
						c-0.7,0.7-0.7,1.7,0,2.4S29.3,10.4,29.9,9.8 M36.1,16.5h-3.4c-0.9,0-1.7,0.8-1.7,1.7c0,0.9,0.8,1.6,1.7,1.7h3.4
						c0.9,0,1.7-0.7,1.7-1.7C37.9,17.3,37.2,16.5,36.1,16.5C36.2,16.5,36.2,16.5,36.1,16.5 M19.1,30.1c-0.9,0-1.7,0.8-1.7,1.7v3.4
						c0,0.9,0.7,1.7,1.7,1.7c0.9,0,1.7-0.7,1.7-1.7c0,0,0-0.1,0-0.1v-3.4C20.8,30.9,20,30.1,19.1,30.1 M8.2,9.8L5.8,7.3
						C5.1,6.7,5.2,5.6,5.9,4.9c0.7-0.6,1.7-0.6,2.3,0l2.4,2.4C11.3,8,11.4,9,10.8,9.7c-0.6,0.7-1.7,0.8-2.4,0.2
						C8.3,9.9,8.3,9.8,8.2,9.8 M27.5,26.6c-0.7,0.7-0.7,1.7,0,2.4c0,0,0,0,0,0l2.4,2.4c0.7,0.7,1.7,0.7,2.4,0s0.7-1.7,0-2.4l0,0
						l-2.4-2.4C29.3,26,28.2,26,27.5,26.6C27.5,26.6,27.5,26.6,27.5,26.6 M2,19.9h3.4c0.9,0,1.7-0.8,1.7-1.7c0-0.9-0.8-1.6-1.7-1.7
						H2c-0.9,0-1.7,0.8-1.7,1.7C0.4,19.2,1.1,19.9,2,19.9 M8.2,31.5l2.4-2.4c0.7-0.7,0.7-1.7,0-2.4s-1.7-0.7-2.4,0l-2.4,2.4
						c-0.7,0.7-0.7,1.7,0,2.4C6.5,32.1,7.5,32.1,8.2,31.5L8.2,31.5 M19.1,8C13.4,8,8.8,12.5,8.8,18.2s4.6,10.2,10.2,10.2
						c5.7,0,10.2-4.6,10.2-10.2C29.3,12.5,24.7,8,19.1,8"/>
				</g>
			</g>
		</g>
		<g id="组_97" transform="translate(148.657 336.286)">
			<g>
				<defs>
					<rect id="SVGID_00000106146624885064673230000014991640518789089924_" x="0.3" y="-0.9" width="17" height="34"/>
				</defs>
				<clipPath id="SVGID_00000129896399209884922920000009459560910776187789_">
					<use xlink:href="#SVGID_00000106146624885064673230000014991640518789089924_"  style="overflow:visible;"/>
				</clipPath>
				
					<g id="组_96" transform="translate(0 0)" style="clip-path:url(#SVGID_00000129896399209884922920000009459560910776187789_);">
					<path id="路径_14" class="st7" d="M14.1,17.8V4.2c0-2.8-2.2-5.2-5-5.2S3.9,1.2,3.8,4c0,0,0,0.1,0,0.1v13.7
						C0.1,20.6-0.7,26,2.1,29.8s8.2,4.5,11.9,1.7c3.8-2.8,4.5-8.2,1.7-11.9C15.3,18.9,14.7,18.3,14.1,17.8 M7.2,4.2
						c0-0.9,0.7-1.7,1.7-1.7s1.7,0.7,1.7,1.7c0,0,0,0.1,0,0.1H9v1.7h1.7v3.4H9V11h1.7v3.4H7.2V4.2z"/>
				</g>
			</g>
		</g>
		<g id="组_99" transform="translate(103 353.771)">
			<g>
				<defs>
					<rect id="SVGID_00000167374627273893809340000018358882653731592104_" y="-0.3" width="42" height="26"/>
				</defs>
				<clipPath id="SVGID_00000054246475798377363010000014003334178817743514_">
					<use xlink:href="#SVGID_00000167374627273893809340000018358882653731592104_"  style="overflow:visible;"/>
				</clipPath>
				
					<g id="组_98" transform="translate(0 0)" style="clip-path:url(#SVGID_00000054246475798377363010000014003334178817743514_);">
					<path id="路径_15" class="st9" d="M33,8.9C31.7,2,24.9-2.5,18-1.1c-3.8,0.8-7.1,3.2-8.9,6.7c-5.6,0.6-9.7,5.7-9,11.3
						C0.7,22,5,25.9,10.2,25.9h22.2c4.7,0,8.5-3.7,8.6-8.4C41.1,13,37.5,9.2,33,8.9 M32.4,22.5H10.2c-3.8,0-6.8-3.1-6.8-6.8
						s3.1-6.8,6.8-6.8c0,0,0,0,0,0h1.2c1.4-5,6.6-7.9,11.6-6.5c4,1.1,6.8,4.8,6.8,9v0.9h2.6c2.8,0,5.2,2.2,5.2,5s-2.2,5.2-5,5.2
						C32.5,22.5,32.5,22.5,32.4,22.5"/>
				</g>
			</g>
		</g>
	</g>
	<g id="组_293" transform="translate(668 390)">
		<g id="组_91" transform="translate(256.123 315)">
			<g>
				<defs>
					<rect id="SVGID_00000114040280475565050620000014531736123416728250_" x="-0.1" y="-0.6" width="29" height="24"/>
				</defs>
				<clipPath id="SVGID_00000065759971330889777740000010167763136146961284_">
					<use xlink:href="#SVGID_00000114040280475565050620000014531736123416728250_"  style="overflow:visible;"/>
				</clipPath>
				<g id="组_90" transform="translate(0)" style="clip-path:url(#SVGID_00000065759971330889777740000010167763136146961284_);">
					<path id="路径_11" class="st9" d="M23.1-0.6L26,5.3h-4.4l-2.9-5.9h-2.9l2.9,5.9h-4.4l-2.9-5.9H8.4l2.9,5.9H6.9L4-0.6H2.5
						c-1.6,0-2.9,1.3-2.9,2.9l0,17.6c0,1.6,1.3,2.9,2.9,2.9H26c1.6,0,2.9-1.3,2.9-2.9V-0.6H23.1z"/>
				</g>
			</g>
		</g>
		<g id="组_93" transform="translate(241 344.167)">
			<g>
				<defs>
					<rect id="SVGID_00000021106468787903171940000005352138377221910461_" y="-0.7" width="29" height="29"/>
				</defs>
				<clipPath id="SVGID_00000134248933636993101390000001270272567166965942_">
					<use xlink:href="#SVGID_00000021106468787903171940000005352138377221910461_"  style="overflow:visible;"/>
				</clipPath>
				
					<g id="组_92" transform="translate(0 0)" style="clip-path:url(#SVGID_00000134248933636993101390000001270272567166965942_);">
					<path id="路径_12" class="st12" d="M29.4,20.3V2.6c0-1.6-1.3-2.9-2.9-2.9H8.8C7.2-0.3,5.9,1,5.9,2.6v17.6
						c0,1.6,1.3,2.9,2.9,2.9h17.6C28.1,23.2,29.4,21.9,29.4,20.3 M13.2,14.4l3,4l4.4-5.5l5.9,7.4H8.8L13.2,14.4z M0,5.5v20.6
						c0,1.6,1.3,2.9,2.9,2.9h20.6v-2.9H2.9V5.5H0z"/>
				</g>
			</g>
		</g>
		<g id="组_101" transform="translate(276.648 347.407)">
			<g>
				<defs>
					<rect id="SVGID_00000183944233666356396440000010411159871073960880_" x="0.4" y="-1" width="17" height="26"/>
				</defs>
				<clipPath id="SVGID_00000049185670839939699510000003617173831454113971_">
					<use xlink:href="#SVGID_00000183944233666356396440000010411159871073960880_"  style="overflow:visible;"/>
				</clipPath>
				
					<g id="组_100" transform="translate(0 0)" style="clip-path:url(#SVGID_00000049185670839939699510000003617173831454113971_);">
					<path id="路径_16" class="st2" d="M8.5-0.6v15.5c-2.8-1.6-6.4-0.6-8,2.2s-0.6,6.4,2.2,8c2.8,1.6,6.4,0.6,8-2.2
						c0.5-0.9,0.8-1.9,0.8-2.9V5.2h5.9v-5.9H8.5z"/>
				</g>
			</g>
		</g>
	</g>
</g>
</svg>
