<?xml version="1.0" encoding="utf-8"?>
<!-- Generator: Adobe Illustrator 26.3.1, SVG Export Plug-In . SVG Version: 6.00 Build 0)  -->
<svg version="1.1" id="圖層_1" xmlns="http://www.w3.org/2000/svg" xmlns:xlink="http://www.w3.org/1999/xlink" x="0px" y="0px"
	 viewBox="0 0 491 277" style="enable-background:new 0 0 491 277;" xml:space="preserve">
<style type="text/css">
	.st0{fill:#1A84F9;}
	.st1{fill:none;stroke:#F2F8FE;}
	.st2{clip-path:url(#SVGID_00000057838551070891542220000003488227234383653010_);}
	.st3{fill:#00C2FF;}
	.st4{clip-path:url(#SVGID_00000137098713427666346230000015450382235162182288_);}
	.st5{fill:#F2F8FE;}
	.st6{clip-path:url(#SVGID_00000042702478159605868480000016911488203259060865_);}
	.st7{fill:#B3C7DC;}
	.st8{clip-path:url(#SVGID_00000136383596121601155850000009396624334826555561_);}
	.st9{clip-path:url(#SVGID_00000011016820549734380690000007629577115989212840_);}
	.st10{fill:#C0F38D;}
	.st11{clip-path:url(#SVGID_00000087390319727968567480000000844461427766555009_);}
	.st12{fill:#FFFFFF;}
</style>
<g id="组_306" transform="translate(-1246 -201)">
	<g id="版面模組橫01" transform="translate(1246 201)">
		<g id="矩形_97">
			<rect y="-0.5" class="st0" width="245.5" height="277"/>
			<rect x="0.5" y="0" class="st1" width="244.5" height="276"/>
		</g>
	</g>
	<g id="版面模組橫01-2" transform="translate(1491.5 201)">
		<g id="矩形_97-2">
			<rect y="-0.5" class="st0" width="245.5" height="277"/>
			<rect x="0.5" y="0" class="st1" width="244.5" height="276"/>
		</g>
	</g>
	<g id="组_296" transform="translate(1202 -318.207)">
		<g id="组_89" transform="translate(151.741 634.429)">
			<g>
				<defs>
					<rect id="SVGID_1_" x="0.3" y="-0.7" width="28" height="27"/>
				</defs>
				<clipPath id="SVGID_00000054226797546997050350000003813571598873418656_">
					<use xlink:href="#SVGID_1_"  style="overflow:visible;"/>
				</clipPath>
				
					<g id="组_88" transform="translate(0 0)" style="clip-path:url(#SVGID_00000054226797546997050350000003813571598873418656_);">
					<path id="路径_10" class="st3" d="M14.1-1C6.5-1,0.3,5.2,0.3,12.8s6.2,13.8,13.8,13.8s13.8-6.2,13.8-13.8
						C27.9,5.2,21.7-1,14.1-1 M12.7,23.8c-5.5-0.7-9.7-5.4-9.7-10.9c0-0.8,0.1-1.7,0.3-2.5L10,17v1.4c0,1.5,1.2,2.8,2.8,2.8V23.8z
						 M22.3,20.3c-0.4-1.1-1.4-1.9-2.6-1.9h-1.4v-4.1c0-0.8-0.6-1.4-1.4-1.4H8.6v-2.8h2.8c0.8,0,1.4-0.6,1.4-1.4V5.9h2.8
						c1.5,0,2.8-1.2,2.8-2.8V2.6c5.6,2.3,8.4,8.7,6.1,14.3C23.9,18.2,23.2,19.3,22.3,20.3"/>
				</g>
			</g>
		</g>
		<g id="组_106" transform="translate(141 666.651)">
			<g>
				<defs>
					<rect id="SVGID_00000088822418015715811560000015073785941626026384_" y="-1" width="28" height="23"/>
				</defs>
				<clipPath id="SVGID_00000151529100683774946250000002505449835939778199_">
					<use xlink:href="#SVGID_00000088822418015715811560000015073785941626026384_"  style="overflow:visible;"/>
				</clipPath>
				
					<g id="组_105" transform="translate(0 0)" style="clip-path:url(#SVGID_00000151529100683774946250000002505449835939778199_);">
					<path id="路径_17" class="st5" d="M24.9-0.1H2.8C1.2-0.1,0,1.2,0,2.7l0,16.6C0,20.8,1.2,22,2.8,22h22.1
						c1.5,0,2.8-1.2,2.8-2.8V2.7C27.6,1.2,26.4-0.1,24.9-0.1 M18,19.3H2.8v-5.5H18L18,19.3z M18,12.4H2.8V6.8H18L18,12.4z
						 M24.9,19.3h-5.5V6.8h5.5V19.3z"/>
				</g>
			</g>
		</g>
		<g id="组_108" transform="translate(174.296 664.503)">
			<g>
				<defs>
					<rect id="SVGID_00000159431968290782268600000002192599551966539686_" x="-0.3" y="-0.8" width="25" height="25"/>
				</defs>
				<clipPath id="SVGID_00000056385639111063476350000013872908236531155603_">
					<use xlink:href="#SVGID_00000159431968290782268600000002192599551966539686_"  style="overflow:visible;"/>
				</clipPath>
				
					<g id="组_107" transform="translate(0 0)" style="clip-path:url(#SVGID_00000056385639111063476350000013872908236531155603_);">
					<path id="路径_18" class="st7" d="M23.3,13.1H1.2c-0.8,0-1.4,0.6-1.4,1.4v8.3c0,0.8,0.6,1.4,1.4,1.4h22.1
						c0.8,0,1.4-0.6,1.4-1.4v-8.3C24.7,13.8,24.1,13.1,23.3,13.1 M5.4,21.4c-1.5,0-2.8-1.2-2.8-2.8c0-1.5,1.2-2.8,2.8-2.8
						s2.8,1.2,2.8,2.8c0,0,0,0,0,0C8.1,20.2,6.9,21.4,5.4,21.4 M23.3-0.7H1.2c-0.8,0-1.4,0.6-1.4,1.4V9c0,0.8,0.6,1.4,1.4,1.4h22.1
						c0.8,0,1.4-0.6,1.4-1.4V0.7C24.7-0.1,24.1-0.7,23.3-0.7 M5.4,7.6c-1.5,0-2.8-1.2-2.8-2.8s1.2-2.8,2.8-2.8s2.8,1.2,2.8,2.8l0,0
						C8.1,6.4,6.9,7.6,5.4,7.6"/>
				</g>
			</g>
		</g>
	</g>
	<g id="组_290" transform="translate(1349 3)">
		<g id="组_91" transform="translate(256.123 315)">
			<g>
				<defs>
					<rect id="SVGID_00000093886601930287334000000004781122638927689620_" x="-0.1" y="-0.5" width="29" height="24"/>
				</defs>
				<clipPath id="SVGID_00000092445211086888682230000017333125978737009810_">
					<use xlink:href="#SVGID_00000093886601930287334000000004781122638927689620_"  style="overflow:visible;"/>
				</clipPath>
				<g id="组_90" transform="translate(0)" style="clip-path:url(#SVGID_00000092445211086888682230000017333125978737009810_);">
					<path id="路径_11" class="st3" d="M23.1-0.5L26,5.4h-4.4l-2.9-5.9h-2.9l2.9,5.9h-4.4l-2.9-5.9H8.4l2.9,5.9H6.9L4-0.5H2.5
						c-1.6,0-2.9,1.3-2.9,2.9l0,17.6c0,1.6,1.3,2.9,2.9,2.9H26c1.6,0,2.9-1.3,2.9-2.9V-0.5H23.1z"/>
				</g>
			</g>
		</g>
		<g id="组_93" transform="translate(241 344.167)">
			<g>
				<defs>
					<rect id="SVGID_00000055688244342839908660000016574867127120285619_" y="-0.7" width="29" height="29"/>
				</defs>
				<clipPath id="SVGID_00000054242015952213601560000002216119797747522988_">
					<use xlink:href="#SVGID_00000055688244342839908660000016574867127120285619_"  style="overflow:visible;"/>
				</clipPath>
				
					<g id="组_92" transform="translate(0 0)" style="clip-path:url(#SVGID_00000054242015952213601560000002216119797747522988_);">
					<path id="路径_12" class="st10" d="M29.4,20.3V2.7c0-1.6-1.3-2.9-2.9-2.9H8.8C7.2-0.3,5.9,1,5.9,2.7v17.6
						c0,1.6,1.3,2.9,2.9,2.9h17.6C28.1,23.2,29.4,21.9,29.4,20.3 M13.2,14.4l3,4l4.4-5.5l5.9,7.4H8.8L13.2,14.4z M0,5.6v20.6
						c0,1.6,1.3,2.9,2.9,2.9h20.6v-2.9H2.9V5.6H0z"/>
				</g>
			</g>
		</g>
		<g id="组_101" transform="translate(276.648 347.407)">
			<g>
				<defs>
					<rect id="SVGID_00000001650489745033628560000002654402573210806432_" x="0.4" y="-0.9" width="17" height="26"/>
				</defs>
				<clipPath id="SVGID_00000031912793278354496690000010598078545078587819_">
					<use xlink:href="#SVGID_00000001650489745033628560000002654402573210806432_"  style="overflow:visible;"/>
				</clipPath>
				
					<g id="组_100" transform="translate(0 0)" style="clip-path:url(#SVGID_00000031912793278354496690000010598078545078587819_);">
					<path id="路径_16" class="st12" d="M8.5-0.6v15.5c-2.8-1.6-6.4-0.6-8,2.2s-0.6,6.4,2.2,8c2.8,1.6,6.4,0.6,8-2.2
						c0.5-0.9,0.8-1.9,0.8-2.9V5.3h5.9v-5.9H8.5z"/>
				</g>
			</g>
		</g>
	</g>
</g>
</svg>
