<?xml version="1.0" encoding="utf-8"?>
<!-- Generator: Adobe Illustrator 26.3.1, SVG Export Plug-In . SVG Version: 6.00 Build 0)  -->
<svg version="1.1" id="圖層_1" xmlns="http://www.w3.org/2000/svg" xmlns:xlink="http://www.w3.org/1999/xlink" x="0px" y="0px"
	 viewBox="0 0 491 277" style="enable-background:new 0 0 491 277;" xml:space="preserve">
<style type="text/css">
	.st0{fill:#1A84F9;}
	.st1{fill:none;stroke:#F2F8FE;}
	.st2{clip-path:url(#SVGID_00000113354503704211900380000006902860983749317794_);}
	.st3{fill:#F8E28A;}
	.st4{clip-path:url(#SVGID_00000033345256704612964680000014789205868301186458_);}
	.st5{fill:#F2F8FE;}
	.st6{clip-path:url(#SVGID_00000121968760194483420270000018138202362260539060_);}
	.st7{fill:#00C2FF;}
	.st8{clip-path:url(#SVGID_00000121964324124228157390000013185545466884860304_);}
	.st9{clip-path:url(#SVGID_00000029032471920835160820000017466673772732856226_);}
	.st10{clip-path:url(#SVGID_00000146499777325958907660000004365239812830217623_);}
	.st11{fill:#B3C7DC;}
</style>
<g id="组_307" transform="translate(-692 -201)">
	<g id="版面模組橫01" transform="translate(692 284)">
		<g id="矩形_97">
			<rect y="-0.5" class="st0" width="491" height="194"/>
			<rect x="0.5" y="0" class="st1" width="490" height="193"/>
		</g>
	</g>
	<g id="版面模組橫01-2" transform="translate(692 201)">
		<g id="矩形_97-2">
			<rect y="-0.5" class="st0" width="491" height="83"/>
			<rect x="0.5" y="0" class="st1" width="490" height="82"/>
		</g>
	</g>
	<g id="组_288" transform="translate(805 -103)">
		<g id="组_87" transform="translate(114.657 312)">
			<g>
				<defs>
					<rect id="SVGID_1_" x="0.3" y="-0.5" width="38" height="37"/>
				</defs>
				<clipPath id="SVGID_00000088099191008672103910000009092794683504155318_">
					<use xlink:href="#SVGID_1_"  style="overflow:visible;"/>
				</clipPath>
				<g id="组_86" transform="translate(0)" style="clip-path:url(#SVGID_00000088099191008672103910000009092794683504155318_);">
					<path id="路径_9" class="st3" d="M17.4,4.7V1.2c0-0.9,0.8-1.7,1.7-1.7c0.9,0,1.6,0.8,1.7,1.7v3.4c0,0.9-0.8,1.7-1.7,1.7
						C18.1,6.3,17.4,5.6,17.4,4.7 M29.9,9.9l2.4-2.4C33,6.8,33,5.7,32.4,5C31.7,4.4,30.7,4.3,30,5c0,0-0.1,0-0.1,0.1l-2.4,2.4
						c-0.7,0.7-0.7,1.7,0,2.4S29.3,10.5,29.9,9.9 M36.1,16.6h-3.4c-0.9,0-1.7,0.8-1.7,1.7c0,0.9,0.8,1.6,1.7,1.7h3.4
						c0.9,0,1.7-0.7,1.7-1.7C37.9,17.4,37.2,16.6,36.1,16.6C36.2,16.6,36.2,16.6,36.1,16.6 M19.1,30.3c-0.9,0-1.7,0.8-1.7,1.7v3.4
						c0,0.9,0.7,1.7,1.7,1.7c0.9,0,1.7-0.7,1.7-1.7c0,0,0-0.1,0-0.1V32C20.8,31,20,30.3,19.1,30.3 M8.2,9.9L5.8,7.5
						C5.1,6.8,5.2,5.7,5.9,5.1c0.7-0.6,1.7-0.6,2.3,0l2.4,2.4c0.7,0.6,0.8,1.7,0.2,2.4c-0.6,0.7-1.7,0.8-2.4,0.2
						C8.3,10,8.3,9.9,8.2,9.9 M27.5,26.8c-0.7,0.7-0.7,1.7,0,2.4c0,0,0,0,0,0l2.4,2.4c0.7,0.7,1.7,0.7,2.4,0s0.7-1.7,0-2.4l0,0
						l-2.4-2.4C29.3,26.1,28.2,26.1,27.5,26.8C27.5,26.8,27.5,26.8,27.5,26.8 M2,20h3.4c0.9,0,1.7-0.8,1.7-1.7
						c0-0.9-0.8-1.6-1.7-1.7H2c-0.9,0-1.7,0.8-1.7,1.7C0.4,19.3,1.1,20,2,20 M8.2,31.6l2.4-2.4c0.7-0.7,0.7-1.7,0-2.4
						s-1.7-0.7-2.4,0l-2.4,2.4c-0.7,0.7-0.7,1.7,0,2.4C6.5,32.3,7.5,32.3,8.2,31.6L8.2,31.6 M19.1,8.1c-5.7,0-10.2,4.6-10.2,10.2
						s4.6,10.2,10.2,10.2c5.7,0,10.2-4.6,10.2-10.2C29.3,12.7,24.7,8.1,19.1,8.1"/>
				</g>
			</g>
		</g>
		<g id="组_97" transform="translate(148.657 336.286)">
			<g>
				<defs>
					<rect id="SVGID_00000118366936782143244950000008403168736876835772_" x="0.3" y="-0.7" width="17" height="34"/>
				</defs>
				<clipPath id="SVGID_00000098943273174428958640000007556692156403998885_">
					<use xlink:href="#SVGID_00000118366936782143244950000008403168736876835772_"  style="overflow:visible;"/>
				</clipPath>
				
					<g id="组_96" transform="translate(0 0)" style="clip-path:url(#SVGID_00000098943273174428958640000007556692156403998885_);">
					<path id="路径_14" class="st5" d="M14.1,17.9V4.3c0-2.8-2.2-5.2-5-5.2c-2.8,0-5.2,2.2-5.2,5c0,0,0,0.1,0,0.1v13.7
						c-3.8,2.8-4.5,8.2-1.7,11.9s8.2,4.5,11.9,1.7c3.8-2.8,4.5-8.2,1.7-11.9C15.3,19,14.7,18.4,14.1,17.9 M7.2,4.3
						c0-0.9,0.7-1.7,1.7-1.7s1.7,0.7,1.7,1.7c0,0,0,0.1,0,0.1H9V6h1.7v3.4H9v1.7h1.7v3.4H7.2V4.3z"/>
				</g>
			</g>
		</g>
		<g id="组_99" transform="translate(103 353.771)">
			<g>
				<defs>
					<rect id="SVGID_00000139999459961736855720000010175815489260954509_" y="-0.2" width="42" height="26"/>
				</defs>
				<clipPath id="SVGID_00000153682784802097979120000003208949575056774317_">
					<use xlink:href="#SVGID_00000139999459961736855720000010175815489260954509_"  style="overflow:visible;"/>
				</clipPath>
				
					<g id="组_98" transform="translate(0 0)" style="clip-path:url(#SVGID_00000153682784802097979120000003208949575056774317_);">
					<path id="路径_15" class="st7" d="M33,9C31.7,2.1,24.9-2.4,18-1c-3.8,0.8-7.1,3.2-8.9,6.7c-5.6,0.6-9.7,5.7-9,11.3
						C0.7,22.1,5,26,10.2,26h22.2c4.7,0,8.5-3.7,8.6-8.4C41.1,13.1,37.5,9.3,33,9 M32.4,22.6H10.2c-3.8,0-6.8-3.1-6.8-6.8
						S6.5,9,10.2,9c0,0,0,0,0,0h1.2c1.4-5,6.6-7.9,11.6-6.5c4,1.1,6.8,4.8,6.8,9v0.9h2.6c2.8,0,5.2,2.2,5.2,5s-2.2,5.2-5,5.2
						C32.5,22.6,32.5,22.6,32.4,22.6"/>
				</g>
			</g>
		</g>
	</g>
	<g id="组_295" transform="translate(766 -277.207)">
		<g id="组_89" transform="translate(151.741 634.429)">
			<g>
				<defs>
					<rect id="SVGID_00000103244668275558638170000004709331366302630321_" x="0.3" y="-0.7" width="28" height="27"/>
				</defs>
				<clipPath id="SVGID_00000175324319196997273990000018140399569720859521_">
					<use xlink:href="#SVGID_00000103244668275558638170000004709331366302630321_"  style="overflow:visible;"/>
				</clipPath>
				
					<g id="组_88" transform="translate(0 0)" style="clip-path:url(#SVGID_00000175324319196997273990000018140399569720859521_);">
					<path id="路径_10" class="st7" d="M14.1-0.9C6.5-0.9,0.3,5.3,0.3,12.9s6.2,13.8,13.8,13.8s13.8-6.2,13.8-13.8
						C27.9,5.3,21.7-0.9,14.1-0.9 M12.7,23.8c-5.5-0.7-9.7-5.4-9.7-10.9c0-0.8,0.1-1.7,0.3-2.5L10,17v1.4c0,1.5,1.2,2.8,2.8,2.8
						V23.8z M22.3,20.3c-0.4-1.1-1.4-1.9-2.6-1.9h-1.4v-4.1c0-0.8-0.6-1.4-1.4-1.4H8.6v-2.8h2.8c0.8,0,1.4-0.6,1.4-1.4V6h2.8
						c1.5,0,2.8-1.2,2.8-2.8V2.7c5.6,2.3,8.4,8.7,6.1,14.3C23.9,18.2,23.2,19.4,22.3,20.3"/>
				</g>
			</g>
		</g>
		<g id="组_106" transform="translate(141 666.651)">
			<g>
				<defs>
					<rect id="SVGID_00000043423733536589977770000007590843699000849084_" y="-0.9" width="28" height="23"/>
				</defs>
				<clipPath id="SVGID_00000108302892871174196220000010565546761752175268_">
					<use xlink:href="#SVGID_00000043423733536589977770000007590843699000849084_"  style="overflow:visible;"/>
				</clipPath>
				
					<g id="组_105" transform="translate(0 0)" style="clip-path:url(#SVGID_00000108302892871174196220000010565546761752175268_);">
					<path id="路径_17" class="st5" d="M24.9,0H2.8C1.2,0,0,1.2,0,2.8l0,16.6c0,1.5,1.2,2.8,2.8,2.8h22.1c1.5,0,2.8-1.2,2.8-2.8
						V2.8C27.6,1.2,26.4,0,24.9,0 M18,19.3H2.8v-5.5H18L18,19.3z M18,12.4H2.8V6.9H18L18,12.4z M24.9,19.3h-5.5V6.9h5.5V19.3z"/>
				</g>
			</g>
		</g>
		<g id="组_108" transform="translate(174.296 664.503)">
			<g>
				<defs>
					<rect id="SVGID_00000108301282253969239030000005552315822407092401_" x="-0.3" y="-0.8" width="25" height="25"/>
				</defs>
				<clipPath id="SVGID_00000139972683560463163210000010604911842995731123_">
					<use xlink:href="#SVGID_00000108301282253969239030000005552315822407092401_"  style="overflow:visible;"/>
				</clipPath>
				
					<g id="组_107" transform="translate(0 0)" style="clip-path:url(#SVGID_00000139972683560463163210000010604911842995731123_);">
					<path id="路径_18" class="st11" d="M23.3,13.2H1.2c-0.8,0-1.4,0.6-1.4,1.4v8.3c0,0.8,0.6,1.4,1.4,1.4h22.1
						c0.8,0,1.4-0.6,1.4-1.4v-8.3C24.7,13.8,24.1,13.2,23.3,13.2 M5.4,21.5c-1.5,0-2.8-1.2-2.8-2.8c0-1.5,1.2-2.8,2.8-2.8
						s2.8,1.2,2.8,2.8c0,0,0,0,0,0C8.1,20.2,6.9,21.5,5.4,21.5 M23.3-0.6H1.2C0.5-0.6-0.2,0-0.2,0.8v8.3c0,0.8,0.6,1.4,1.4,1.4h22.1
						c0.8,0,1.4-0.6,1.4-1.4V0.8C24.7,0,24.1-0.6,23.3-0.6 M5.4,7.7c-1.5,0-2.8-1.2-2.8-2.8s1.2-2.8,2.8-2.8s2.8,1.2,2.8,2.8l0,0
						C8.1,6.4,6.9,7.7,5.4,7.7"/>
				</g>
			</g>
		</g>
	</g>
</g>
</svg>
